<svg width="113" height="113" viewBox="0 0 113 113" fill="none" xmlns="http://www.w3.org/2000/svg">
<g clip-path="url(#clip0)">
<path d="M28.373 37.272C28.373 42.3094 32.4716 46.4079 37.5089 46.4079C42.5472 46.4079 46.6457 42.3094 46.6457 37.272C46.6457 32.2338 42.5472 28.1353 37.5089 28.1353C32.4716 28.1353 28.373 32.2338 28.373 37.272ZM42.2317 37.272C42.2317 39.8756 40.1134 41.9939 37.5089 41.9939C34.9053 41.9939 32.7871 39.8756 32.7871 37.272C32.7871 34.6675 34.9053 32.5493 37.5089 32.5493C40.1134 32.5493 42.2317 34.6675 42.2317 37.272Z" fill="black"/>
<path d="M75.9941 13.2432C76.5769 13.2432 77.1442 13.0069 77.5546 12.5966C77.965 12.1862 78.2012 11.6163 78.2012 11.0361C78.2012 10.4533 77.9658 9.88606 77.5546 9.47569C77.1442 9.06274 76.5769 8.8291 75.9941 8.8291C75.4139 8.8291 74.8449 9.06274 74.4346 9.47569C74.0233 9.88606 73.7871 10.4533 73.7871 11.0361C73.7871 11.6163 74.0233 12.1862 74.4346 12.5966C74.8449 13.0069 75.4139 13.2432 75.9941 13.2432Z" fill="black"/>
<path d="M101.965 8.82812H83.9405C82.7223 8.82812 81.7334 9.81612 81.7334 11.0352C81.7334 12.2542 82.7223 13.2422 83.9405 13.2422H101.965C105.616 13.2422 108.586 16.2122 108.586 19.8633V81.4291L72.7794 45.6217C71.9173 44.7605 70.5198 44.7605 69.6577 45.6217L46.3666 68.9128L40.7956 63.3427C40.3818 62.9288 39.8205 62.6961 39.2352 62.6961C38.6498 62.6961 38.0885 62.9288 37.6739 63.3427L5.05979 95.9567C4.64597 95.0929 4.41406 94.1264 4.41406 93.1065V19.8633C4.41406 16.2122 7.38407 13.2422 11.0352 13.2422H67.167C68.3861 13.2422 69.3741 12.2542 69.3741 11.0352C69.3741 9.81612 68.3861 8.82812 67.167 8.82812H11.0352C4.9503 8.82812 0 13.7784 0 19.8633V93.1065C0 96.0766 1.18197 98.775 3.0976 100.761C3.13985 100.811 3.18295 100.86 3.23037 100.908C3.27606 100.954 3.32434 100.995 3.37262 101.036C5.35895 102.956 8.06084 104.142 11.0352 104.142H101.965C108.05 104.142 113 99.1914 113 93.1065V19.8633C113 13.7784 108.05 8.82812 101.965 8.82812V8.82812ZM101.965 99.7276H11.0352C10.0135 99.7276 9.04452 99.494 8.17981 99.0793L39.2343 68.024L44.8053 73.5941V73.5959H44.8062L58.8062 87.5959C59.6683 88.458 61.0658 88.458 61.9271 87.5959C62.7892 86.7337 62.7892 85.3362 61.9271 84.4741L49.4875 72.0346L71.2181 50.3039L108.51 87.595C108.534 87.62 108.561 87.6407 108.586 87.664V93.1057C108.586 96.7568 105.616 99.7276 101.965 99.7276V99.7276Z" fill="black"/>
<path d="M66.7588 90.2202C66.176 90.2202 65.6087 90.4538 65.1983 90.8668C64.7854 91.2772 64.5518 91.8445 64.5518 92.4272C64.5518 93.0075 64.7854 93.5747 65.1983 93.9877C65.6087 94.3981 66.176 94.6343 66.7588 94.6343C67.339 94.6343 67.908 94.3981 68.3192 93.9877C68.7296 93.5747 68.9658 93.0075 68.9658 92.4272C68.9658 91.8445 68.7296 91.2772 68.3192 90.8668C67.908 90.4538 67.339 90.2202 66.7588 90.2202Z" fill="black"/>
</g>
<defs>
<clipPath id="clip0">
<rect width="113" height="113" fill="white"/>
</clipPath>
</defs>
</svg>
