<svg width="902" height="896" viewBox="0 0 902 896" fill="none" xmlns="http://www.w3.org/2000/svg">
<path d="M183 243L554 868.5" stroke="url(#paint0_linear)" stroke-opacity="0.25"/>
<path d="M180.5 245L549.5 868.5" stroke="url(#paint1_linear)" stroke-opacity="0.25"/>
<path d="M1.5 347.5L337 154.5L397 129L593.5 15" stroke="url(#paint2_linear)" stroke-opacity="0.4"/>
<path d="M1 327.5L329.5 137.5L389.5 112L583 1" stroke="url(#paint3_linear)" stroke-opacity="0.4"/>
<path d="M871.5 543.5L832 568.5L876.5 640.5L900.5 626L875 584L890.5 574L871.5 543.5Z" stroke="#A9ACFF" stroke-opacity="0.5"/>
<path d="M837.5 615L820 585L774.5 610L791.5 639.5L837.5 615Z" stroke="#A9ACFF" stroke-opacity="0.5"/>
<path d="M233 214.5L599 837.5" stroke="url(#paint4_linear)" stroke-opacity="0.4"/>
<path d="M144.5 265.5L510 888" stroke="url(#paint5_linear)" stroke-opacity="0.4"/>
<path d="M220.5 222L586 845" stroke="url(#paint6_linear)" stroke-opacity="0.4"/>
<path d="M131.5 273L497 895.5" stroke="url(#paint7_linear)" stroke-opacity="0.4"/>
<path d="M447.798 364.462L410.198 302.404L486.547 256.435L522.584 316.033L591.05 274.767L645.9 365.894L600.093 393.575L640.82 460.555L691.049 429.759L668.622 393.821L794.712 317.57L830.749 377.167L718.911 443.551L731.444 464.237L753.117 451.178L768.24 475.299L665.783 536.941L686.134 569.931L562.018 645.131L527.045 588.008L640 520.5L627.823 499.9L605 513.5L590.566 490.35L614.213 476.241L573.999 409.748L529.666 436.391L476.354 346.726L447.798 364.462Z" fill="#F0F1FF" stroke="#A9ACFF"/>
<path d="M254.909 153.567L255.176 160.069C255.204 160.57 255.142 160.966 254.99 161.259C254.845 161.548 254.611 161.774 254.29 161.936C254.075 162.043 253.855 162.109 253.628 162.134C253.408 162.155 253.197 162.13 252.997 162.059L253.05 161.607C253.411 161.731 253.761 161.708 254.101 161.538C254.327 161.424 254.49 161.264 254.588 161.058C254.686 160.852 254.727 160.563 254.711 160.191L254.678 159.502L250.244 155.91L250.718 155.672L254.682 158.907L254.453 153.796L254.909 153.567ZM259.916 151.051L262.259 155.716L261.812 155.94L259.671 151.678L257.24 152.899L257.802 154.173C258.089 154.834 258.307 155.4 258.454 155.871C258.601 156.341 258.655 156.754 258.617 157.109C258.579 157.464 258.408 157.718 258.104 157.87C258.015 157.915 257.876 157.959 257.688 158.001L257.54 157.594C257.647 157.57 257.725 157.546 257.772 157.522C258.023 157.397 258.152 157.179 258.16 156.869C258.169 156.558 258.105 156.21 257.97 155.822C257.836 155.435 257.636 154.942 257.373 154.343L256.645 152.694L259.916 151.051ZM264.583 154.593C264.481 154.644 264.374 154.653 264.261 154.621C264.15 154.579 264.068 154.505 264.014 154.398C263.96 154.29 263.951 154.183 263.987 154.076C264.028 153.965 264.1 153.885 264.201 153.834C264.302 153.783 264.407 153.775 264.514 153.811C264.627 153.843 264.711 153.913 264.765 154.02C264.819 154.128 264.826 154.239 264.788 154.356C264.752 154.463 264.684 154.542 264.583 154.593ZM272.478 150.638C271.864 150.946 271.241 151.088 270.609 151.062C269.983 151.033 269.406 150.85 268.877 150.511C268.355 150.169 267.943 149.697 267.64 149.095C267.338 148.494 267.206 147.881 267.243 147.258C267.287 146.632 267.484 146.059 267.835 145.54C268.191 145.017 268.677 144.602 269.29 144.294C269.743 144.066 270.197 143.931 270.653 143.889C271.107 143.84 271.539 143.891 271.951 144.043L271.813 144.481C271.064 144.238 270.299 144.313 269.519 144.705C268.995 144.968 268.578 145.327 268.269 145.78C267.96 146.234 267.789 146.734 267.758 147.28C267.723 147.819 267.836 148.348 268.096 148.866C268.356 149.385 268.715 149.794 269.172 150.094C269.625 150.389 270.127 150.547 270.675 150.57C271.224 150.593 271.76 150.472 272.284 150.209C273.059 149.82 273.574 149.248 273.829 148.493L274.263 148.644C274.138 149.065 273.92 149.447 273.607 149.791C273.301 150.131 272.924 150.414 272.478 150.638ZM276.79 144.7C277.37 144.416 277.876 144.323 278.305 144.42C278.732 144.512 279.065 144.796 279.304 145.272C279.552 145.767 279.582 146.226 279.392 146.65C279.202 147.073 278.801 147.435 278.191 147.734L276.439 148.592L274.096 143.927L274.543 143.703L275.387 145.383L276.79 144.7ZM278.573 141.678L279.019 141.454L281.363 146.118L280.916 146.343L278.573 141.678ZM277.993 147.386C278.473 147.152 278.785 146.876 278.931 146.557C279.076 146.237 279.052 145.884 278.857 145.497C278.669 145.122 278.41 144.904 278.082 144.845C277.751 144.78 277.338 144.865 276.844 145.098L275.562 145.731L276.706 148.01L277.993 147.386ZM284.223 141.973L283.088 142.543L284.174 144.706L283.727 144.93L281.384 140.266L281.831 140.041L282.895 142.159L284.03 141.589L284.726 138.587L285.217 138.34L284.459 141.552L287.704 142.932L287.168 143.202L284.223 141.973ZM290.117 136.382L288.294 137.298L290.435 141.56L289.988 141.785L287.847 137.522L286.024 138.438L285.822 138.036L289.915 135.98L290.117 136.382ZM294.012 136.048C294.593 135.764 295.098 135.67 295.527 135.768C295.954 135.859 296.287 136.143 296.526 136.62C296.775 137.114 296.804 137.573 296.614 137.997C296.424 138.421 296.023 138.782 295.413 139.082L293.661 139.939L291.318 135.275L291.765 135.05L292.609 136.73L294.012 136.048ZM295.795 133.026L296.242 132.801L298.585 137.466L298.138 137.69L295.795 133.026ZM295.215 138.733C295.695 138.5 296.007 138.223 296.153 137.904C296.298 137.585 296.274 137.232 296.079 136.844C295.891 136.469 295.633 136.252 295.304 136.193C294.973 136.128 294.561 136.212 294.066 136.446L292.784 137.079L293.929 139.357L295.215 138.733ZM302.503 132.487C303.248 132.262 303.784 132.474 304.11 133.123C304.313 133.528 304.32 133.913 304.13 134.277C303.946 134.638 303.559 134.967 302.969 135.263L300.95 136.278L298.606 131.613L300.572 130.626C301.09 130.365 301.548 130.266 301.944 130.328C302.344 130.381 302.64 130.598 302.831 130.979C302.969 131.253 303.007 131.521 302.944 131.784C302.885 132.037 302.738 132.272 302.503 132.487ZM300.112 133.52L301.614 132.766C302.013 132.565 302.282 132.337 302.422 132.08C302.558 131.817 302.555 131.543 302.411 131.257C302.265 130.965 302.048 130.802 301.762 130.766C301.479 130.722 301.134 130.802 300.729 131.006L299.228 131.76L300.112 133.52ZM302.776 134.901C303.664 134.455 303.956 133.932 303.654 133.33C303.495 133.014 303.277 132.833 303 132.786C302.723 132.738 302.367 132.824 301.932 133.042L300.288 133.869L301.203 135.691L302.776 134.901ZM307.267 130.396L306.132 130.966L307.219 133.128L306.772 133.353L304.428 128.688L304.875 128.464L305.939 130.582L307.074 130.011L307.77 127.009L308.262 126.762L307.503 129.975L310.748 131.355L310.212 131.624L307.267 130.396ZM311.394 125.144C311.972 124.853 312.491 124.779 312.95 124.922C313.407 125.058 313.779 125.412 314.066 125.984L315.552 128.942L315.123 129.157L314.705 128.326C314.694 128.675 314.584 128.999 314.376 129.297C314.165 129.59 313.86 129.836 313.461 130.037C312.943 130.297 312.47 130.382 312.044 130.29C311.623 130.195 311.313 129.948 311.112 129.549C310.918 129.162 310.898 128.781 311.052 128.405C311.209 128.02 311.592 127.675 312.199 127.369L313.799 126.566L313.61 126.19C313.392 125.756 313.106 125.485 312.754 125.378C312.408 125.268 312.009 125.327 311.556 125.555C311.246 125.71 310.976 125.914 310.743 126.165C310.517 126.413 310.351 126.675 310.244 126.953L309.859 126.743C309.987 126.418 310.186 126.117 310.457 125.839C310.724 125.555 311.037 125.323 311.394 125.144ZM313.339 129.639C313.727 129.444 314.009 129.19 314.188 128.877C314.372 128.561 314.447 128.198 314.414 127.79L313.974 126.914L312.383 127.713C311.925 127.944 311.633 128.195 311.508 128.466C311.389 128.735 311.403 129.015 311.55 129.307C311.703 129.611 311.937 129.795 312.253 129.86C312.566 129.919 312.928 129.845 313.339 129.639ZM317.803 121.924C318.238 121.706 318.682 121.61 319.135 121.635C319.588 121.661 320.003 121.804 320.379 122.062C320.761 122.318 321.067 122.675 321.298 123.134C321.528 123.593 321.633 124.055 321.613 124.52C321.596 124.976 321.463 125.394 321.213 125.773C320.961 126.146 320.617 126.442 320.182 126.66C319.771 126.867 319.351 126.958 318.921 126.935C318.489 126.906 318.094 126.766 317.735 126.513L319.141 129.31L318.694 129.534L315.479 123.136L315.908 122.921L316.461 124.02C316.466 123.57 316.586 123.162 316.82 122.798C317.058 122.425 317.386 122.134 317.803 121.924ZM319.953 126.272C320.311 126.092 320.59 125.847 320.792 125.536C320.995 125.226 321.101 124.881 321.112 124.503C321.13 124.121 321.042 123.74 320.851 123.358C320.659 122.977 320.405 122.68 320.089 122.465C319.778 122.248 319.438 122.128 319.069 122.105C318.699 122.082 318.335 122.16 317.978 122.34C317.62 122.519 317.341 122.764 317.138 123.075C316.942 123.382 316.836 123.727 316.818 124.109C316.807 124.487 316.897 124.867 317.089 125.248C317.281 125.63 317.532 125.929 317.842 126.146C318.158 126.36 318.499 126.48 318.862 126.506C319.232 126.529 319.596 126.451 319.953 126.272ZM326.272 123.6C325.82 123.828 325.364 123.93 324.905 123.907C324.445 123.884 324.025 123.745 323.643 123.489C323.258 123.227 322.951 122.87 322.724 122.418C322.493 121.959 322.39 121.5 322.413 121.041C322.433 120.576 322.572 120.155 322.831 119.779C323.086 119.397 323.44 119.092 323.893 118.864C324.268 118.676 324.645 118.58 325.024 118.576C325.406 118.563 325.762 118.649 326.093 118.833L325.884 119.241C325.6 119.092 325.305 119.024 324.998 119.037C324.694 119.04 324.393 119.117 324.095 119.266C323.732 119.449 323.446 119.697 323.238 120.011C323.033 120.315 322.922 120.658 322.904 121.04C322.893 121.418 322.985 121.801 323.179 122.189C323.374 122.576 323.627 122.878 323.937 123.095C324.253 123.309 324.597 123.428 324.966 123.451C325.339 123.465 325.707 123.381 326.07 123.198C326.368 123.049 326.611 122.856 326.798 122.62C326.989 122.375 327.109 122.095 327.159 121.778L327.611 121.854C327.561 122.229 327.418 122.57 327.183 122.874C326.951 123.17 326.648 123.412 326.272 123.6ZM330.285 118.831L329.15 119.402L330.237 121.564L329.79 121.788L327.446 117.124L327.893 116.9L328.957 119.017L330.092 118.447L330.788 115.445L331.28 115.198L330.521 118.411L333.766 119.791L333.23 120.06L330.285 118.831ZM334.413 113.579C334.99 113.289 335.509 113.215 335.968 113.357C336.425 113.494 336.797 113.848 337.084 114.42L338.57 117.377L338.141 117.593L337.724 116.762C337.712 117.111 337.603 117.434 337.394 117.733C337.183 118.025 336.878 118.272 336.479 118.472C335.961 118.733 335.488 118.817 335.062 118.726C334.641 118.631 334.331 118.384 334.13 117.985C333.936 117.598 333.916 117.216 334.07 116.84C334.227 116.455 334.61 116.11 335.217 115.805L336.817 115.001L336.628 114.626C336.41 114.191 336.125 113.921 335.773 113.814C335.426 113.704 335.027 113.763 334.574 113.991C334.265 114.146 333.994 114.349 333.762 114.6C333.535 114.848 333.369 115.111 333.262 115.388L332.877 115.179C333.005 114.854 333.204 114.552 333.475 114.274C333.742 113.991 334.055 113.759 334.413 113.579ZM336.358 118.075C336.745 117.88 337.028 117.626 337.206 117.313C337.39 116.996 337.465 116.634 337.432 116.226L336.992 115.35L335.401 116.149C334.943 116.379 334.651 116.63 334.526 116.902C334.407 117.171 334.421 117.451 334.568 117.743C334.721 118.047 334.955 118.231 335.271 118.296C335.584 118.355 335.947 118.281 336.358 118.075ZM341.929 109.848L344.272 114.512L343.861 114.719L343.053 113.111L341.498 113.892C341.391 113.946 341.312 113.981 341.262 113.999L340.921 116.196L340.43 116.443L340.797 114.166C340.374 114.274 339.999 114.257 339.674 114.114C339.349 113.972 339.089 113.707 338.894 113.32C338.637 112.807 338.612 112.335 338.82 111.902C339.034 111.467 339.439 111.099 340.034 110.8L341.929 109.848ZM339.35 113.113C339.733 113.876 340.407 114.015 341.372 113.53L342.883 112.771L341.715 110.448L340.259 111.179C339.258 111.682 338.955 112.327 339.35 113.113Z" fill="black"/>
<path d="M275.343 440.636L277.937 444.899L277.553 445.133L275.224 441.306L273.071 442.616L274.303 444.64C274.729 445.341 274.911 445.96 274.848 446.498C274.785 447.035 274.478 447.472 273.925 447.808C273.356 448.155 272.802 448.226 272.265 448.023C271.727 447.819 271.235 447.35 270.788 446.616L269.363 444.275L275.343 440.636ZM271.16 446.401C271.524 446.998 271.914 447.382 272.329 447.551C272.749 447.716 273.187 447.66 273.643 447.383C274.537 446.839 274.615 445.96 273.877 444.747L272.712 442.834L269.996 444.487L271.16 446.401ZM277.727 453.229L275.393 449.393C275.052 449.616 274.796 449.893 274.623 450.224C274.456 450.552 274.383 450.901 274.405 451.27C274.43 451.645 274.55 452.009 274.765 452.362C274.942 452.653 275.156 452.889 275.407 453.072C275.668 453.256 275.951 453.369 276.257 453.409L276.125 453.829C275.774 453.777 275.446 453.641 275.14 453.421C274.838 453.207 274.583 452.929 274.375 452.588C274.105 452.143 273.961 451.689 273.943 451.223C273.925 450.758 274.027 450.322 274.247 449.915C274.471 449.513 274.802 449.179 275.241 448.912C275.673 448.649 276.116 448.504 276.569 448.478C277.03 448.455 277.457 448.547 277.848 448.753C278.239 448.96 278.558 449.266 278.804 449.67C279.05 450.074 279.173 450.495 279.174 450.932C279.183 451.371 279.073 451.785 278.842 452.175C278.615 452.571 278.284 452.901 277.852 453.164L277.727 453.229ZM278.428 449.899C278.237 449.586 277.995 449.347 277.7 449.183C277.411 449.016 277.091 448.933 276.741 448.935C276.401 448.94 276.064 449.027 275.731 449.199L277.811 452.616C278.119 452.405 278.352 452.146 278.509 451.84C278.666 451.533 278.739 451.212 278.729 450.874C278.719 450.537 278.619 450.212 278.428 449.899ZM282.575 455.867C282.828 456.282 282.96 456.717 282.971 457.171C282.981 457.625 282.873 458.05 282.646 458.446C282.422 458.847 282.091 459.181 281.652 459.448C281.214 459.715 280.762 459.857 280.297 459.875C279.841 459.895 279.413 459.796 279.015 459.578C278.623 459.356 278.3 459.038 278.047 458.622C277.808 458.229 277.683 457.817 277.671 457.388C277.665 456.954 277.773 456.549 277.996 456.171L275.322 457.799L275.062 457.371L281.179 453.649L281.428 454.059L280.377 454.699C280.827 454.667 281.242 454.754 281.624 454.958C282.015 455.165 282.332 455.468 282.575 455.867ZM278.416 458.362C278.624 458.704 278.891 458.963 279.217 459.139C279.542 459.316 279.895 459.394 280.273 459.375C280.655 459.361 281.028 459.243 281.392 459.021C281.757 458.799 282.033 458.522 282.221 458.189C282.412 457.862 282.504 457.514 282.497 457.143C282.49 456.773 282.383 456.417 282.175 456.075C281.967 455.733 281.7 455.474 281.374 455.298C281.052 455.127 280.7 455.049 280.318 455.063C279.94 455.082 279.568 455.203 279.204 455.425C278.839 455.646 278.561 455.921 278.37 456.248C278.183 456.581 278.09 456.929 278.094 457.294C278.101 457.665 278.208 458.021 278.416 458.362ZM284.968 465.128L282.634 461.293C282.294 461.515 282.037 461.792 281.864 462.124C281.697 462.452 281.624 462.801 281.646 463.17C281.671 463.545 281.791 463.909 282.006 464.262C282.183 464.552 282.397 464.789 282.648 464.971C282.909 465.156 283.192 465.268 283.498 465.309L283.367 465.728C283.015 465.677 282.687 465.541 282.381 465.321C282.079 465.107 281.824 464.829 281.616 464.487C281.346 464.043 281.202 463.588 281.184 463.123C281.167 462.658 281.268 462.221 281.488 461.814C281.712 461.413 282.043 461.078 282.482 460.812C282.915 460.548 283.357 460.404 283.81 460.378C284.272 460.354 284.698 460.446 285.089 460.653C285.481 460.86 285.799 461.165 286.045 461.57C286.291 461.974 286.415 462.395 286.415 462.831C286.425 463.27 286.314 463.685 286.083 464.075C285.856 464.471 285.526 464.801 285.093 465.064L284.968 465.128ZM285.669 461.798C285.479 461.485 285.236 461.247 284.941 461.083C284.652 460.915 284.332 460.833 283.983 460.835C283.642 460.839 283.305 460.927 282.972 461.098L285.052 464.515C285.36 464.304 285.593 464.046 285.75 463.739C285.907 463.433 285.981 463.111 285.97 462.774C285.96 462.437 285.86 462.112 285.669 461.798ZM287.394 468.671C287.532 469.04 287.561 469.37 287.48 469.66C287.409 469.954 287.24 470.182 286.972 470.344C286.71 470.504 286.426 470.556 286.119 470.501C285.816 470.451 285.52 470.311 285.231 470.081C284.943 469.851 284.693 469.562 284.481 469.214C284.287 468.896 284.145 468.553 284.055 468.186C283.974 467.822 283.958 467.469 284.007 467.127L284.427 467.105C284.378 467.409 284.39 467.725 284.466 468.053C284.544 468.388 284.67 468.698 284.844 468.982C285.1 469.404 285.405 469.706 285.758 469.889C286.117 470.069 286.445 470.068 286.741 469.888C287.003 469.729 287.133 469.481 287.132 469.146C287.141 468.814 287.02 468.442 286.771 468.032L286.334 467.315L286.658 467.117L287.085 467.818C287.303 468.176 287.553 468.426 287.834 468.567C288.118 468.714 288.38 468.715 288.619 468.569C288.898 468.4 289.034 468.142 289.026 467.795C289.027 467.451 288.908 467.082 288.669 466.689C288.364 466.188 287.948 465.794 287.422 465.505L287.686 465.169C288.27 465.501 288.733 465.948 289.076 466.512C289.378 467.007 289.521 467.486 289.505 467.948C289.496 468.407 289.309 468.747 288.944 468.969C288.711 469.111 288.455 469.153 288.178 469.095C287.901 469.038 287.64 468.896 287.394 468.671ZM287.913 474.833C287.656 474.412 287.521 473.971 287.506 473.512C287.496 473.058 287.602 472.63 287.826 472.229C288.055 471.824 288.387 471.49 288.82 471.226C289.252 470.963 289.699 470.824 290.158 470.81C290.623 470.792 291.055 470.892 291.453 471.11C291.855 471.334 292.184 471.657 292.44 472.078C292.697 472.5 292.83 472.937 292.841 473.391C292.855 473.851 292.748 474.283 292.518 474.688C292.294 475.09 291.966 475.422 291.533 475.685C291.1 475.949 290.651 476.089 290.186 476.107C289.727 476.121 289.296 476.017 288.894 475.793C288.496 475.575 288.169 475.255 287.913 474.833ZM288.297 474.599C288.505 474.941 288.77 475.197 289.092 475.368C289.418 475.544 289.77 475.623 290.149 475.603C290.53 475.589 290.904 475.472 291.268 475.25C291.632 475.028 291.909 474.751 292.096 474.418C292.287 474.091 292.38 473.742 292.373 473.372C292.369 473.007 292.264 472.654 292.056 472.312C291.848 471.97 291.581 471.711 291.255 471.535C290.933 471.364 290.581 471.286 290.199 471.3C289.821 471.319 289.449 471.44 289.085 471.662C288.72 471.884 288.442 472.158 288.251 472.485C288.063 472.818 287.971 473.167 287.975 473.531C287.982 473.902 288.089 474.258 288.297 474.599ZM294.314 480.102C294.599 480.826 294.431 481.377 293.81 481.755C293.423 481.99 293.04 482.028 292.662 481.868C292.287 481.714 291.928 481.355 291.585 480.791L290.41 478.86L294.869 476.147L296.013 478.026C296.314 478.522 296.45 478.97 296.421 479.37C296.4 479.772 296.208 480.085 295.844 480.306C295.582 480.466 295.317 480.525 295.051 480.485C294.793 480.446 294.548 480.319 294.314 480.102ZM293.091 477.803L293.964 479.238C294.196 479.619 294.446 479.869 294.713 479.988C294.986 480.103 295.259 480.077 295.532 479.911C295.811 479.741 295.957 479.512 295.969 479.224C295.99 478.938 295.883 478.601 295.647 478.214L294.774 476.779L293.091 477.803ZM291.93 480.569C292.446 481.418 292.992 481.667 293.567 481.317C293.869 481.133 294.032 480.901 294.057 480.621C294.081 480.341 293.967 479.993 293.714 479.577L292.758 478.005L291.015 479.066L291.93 480.569ZM299.19 483.17C299.526 483.722 299.642 484.233 299.537 484.703C299.438 485.169 299.116 485.568 298.569 485.901L295.741 487.621L295.492 487.211L296.286 486.728C295.938 486.745 295.606 486.662 295.292 486.479C294.983 486.292 294.712 486.008 294.48 485.626C294.179 485.131 294.056 484.667 294.113 484.234C294.173 483.807 294.394 483.478 294.776 483.246C295.146 483.02 295.525 482.969 295.912 483.093C296.308 483.218 296.683 483.571 297.037 484.152L297.967 485.681L298.326 485.463C298.742 485.21 298.989 484.904 299.066 484.544C299.148 484.191 299.057 483.797 298.793 483.364C298.613 483.068 298.388 482.815 298.12 482.604C297.854 482.398 297.579 482.254 297.294 482.17L297.471 481.769C297.806 481.87 298.122 482.044 298.421 482.291C298.726 482.535 298.982 482.828 299.19 483.17ZM294.867 485.473C295.092 485.843 295.368 486.104 295.695 486.256C296.025 486.414 296.393 486.46 296.797 486.394L297.634 485.884L296.709 484.364C296.442 483.925 296.168 483.655 295.887 483.552C295.61 483.456 295.332 483.492 295.053 483.662C294.762 483.839 294.598 484.088 294.558 484.408C294.525 484.725 294.628 485.08 294.867 485.473ZM303.518 490.359L299.059 493.073L298.82 492.68L300.357 491.744L299.453 490.258C299.39 490.155 299.348 490.079 299.326 490.03L297.109 489.869L296.823 489.399L299.123 489.581C298.981 489.168 298.967 488.793 299.083 488.458C299.199 488.122 299.442 487.841 299.812 487.616C300.302 487.318 300.77 487.255 301.219 487.427C301.67 487.605 302.069 487.979 302.416 488.548L303.518 490.359ZM300.055 488.054C299.326 488.497 299.242 489.18 299.803 490.103L300.682 491.547L302.903 490.195L302.056 488.803C301.473 487.846 300.806 487.596 300.055 488.054ZM307.427 496.706C307.763 497.259 307.879 497.77 307.775 498.239C307.676 498.705 307.353 499.104 306.806 499.437L303.979 501.158L303.729 500.748L304.524 500.264C304.175 500.281 303.843 500.198 303.529 500.015C303.22 499.828 302.95 499.544 302.718 499.162C302.416 498.667 302.294 498.203 302.35 497.77C302.411 497.344 302.632 497.014 303.013 496.782C303.383 496.557 303.762 496.506 304.149 496.629C304.546 496.755 304.921 497.108 305.274 497.689L306.205 499.218L306.563 498.999C306.979 498.746 307.226 498.44 307.304 498.081C307.385 497.727 307.294 497.334 307.03 496.901C306.85 496.605 306.626 496.351 306.357 496.14C306.091 495.935 305.816 495.79 305.531 495.706L305.709 495.306C306.043 495.406 306.36 495.58 306.658 495.828C306.963 496.072 307.219 496.365 307.427 496.706ZM303.104 499.009C303.33 499.379 303.606 499.641 303.932 499.793C304.263 499.951 304.63 499.997 305.034 499.93L305.871 499.421L304.946 497.9C304.679 497.461 304.405 497.191 304.125 497.089C303.847 496.992 303.569 497.029 303.29 497.199C303 497.375 302.835 497.624 302.796 497.944C302.762 498.261 302.865 498.616 303.104 499.009ZM311.875 504.092L307.416 506.806L307.156 506.378L311.23 503.899L309.816 501.575L308.593 502.238C307.957 502.578 307.41 502.841 306.953 503.025C306.496 503.21 306.089 503.298 305.732 503.288C305.375 503.279 305.108 503.129 304.931 502.839C304.879 502.753 304.825 502.619 304.768 502.435L305.161 502.254C305.194 502.359 305.224 502.435 305.252 502.48C305.397 502.719 305.625 502.831 305.935 502.814C306.244 502.797 306.587 502.706 306.962 502.54C307.337 502.374 307.812 502.135 308.388 501.824L309.972 500.965L311.875 504.092ZM315.379 509.85L310.919 512.564L310.66 512.136L314.734 509.657L313.32 507.333L312.097 507.996C311.461 508.336 310.914 508.598 310.457 508.783C309.999 508.968 309.592 509.055 309.236 509.046C308.879 509.037 308.612 508.887 308.435 508.597C308.383 508.511 308.329 508.377 308.272 508.193L308.665 508.012C308.698 508.117 308.728 508.193 308.756 508.238C308.901 508.477 309.129 508.588 309.438 508.572C309.748 508.555 310.091 508.464 310.466 508.298C310.841 508.132 311.316 507.893 311.892 507.582L313.476 506.723L315.379 509.85ZM316.743 517.343L314.409 513.507C314.068 513.73 313.812 514.007 313.639 514.339C313.472 514.667 313.399 515.016 313.421 515.385C313.446 515.76 313.566 516.124 313.781 516.477C313.957 516.767 314.172 517.004 314.423 517.186C314.684 517.371 314.967 517.483 315.272 517.524L315.141 517.943C314.79 517.892 314.462 517.756 314.156 517.536C313.854 517.322 313.599 517.044 313.391 516.702C313.121 516.258 312.977 515.803 312.959 515.338C312.941 514.873 313.042 514.436 313.263 514.029C313.487 513.628 313.818 513.293 314.256 513.027C314.689 512.763 315.132 512.619 315.585 512.593C316.046 512.569 316.473 512.661 316.864 512.868C317.255 513.075 317.574 513.38 317.82 513.785C318.066 514.189 318.189 514.609 318.19 515.046C318.199 515.485 318.089 515.9 317.858 516.29C317.631 516.686 317.3 517.015 316.868 517.279L316.743 517.343ZM317.444 514.013C317.253 513.7 317.011 513.461 316.716 513.298C316.427 513.13 316.107 513.048 315.757 513.05C315.417 513.054 315.08 513.142 314.747 513.313L316.826 516.73C317.135 516.519 317.368 516.26 317.525 515.954C317.682 515.648 317.755 515.326 317.745 514.989C317.735 514.652 317.635 514.327 317.444 514.013ZM322.115 520.919L317.655 523.633L317.416 523.24L318.954 522.304L318.049 520.818C317.987 520.715 317.945 520.639 317.923 520.59L315.706 520.429L315.42 519.959L317.719 520.14C317.577 519.727 317.564 519.353 317.68 519.017C317.795 518.682 318.038 518.401 318.408 518.176C318.898 517.878 319.367 517.815 319.815 517.987C320.267 518.165 320.666 518.538 321.013 519.108L322.115 520.919ZM318.651 518.613C317.922 519.057 317.839 519.74 318.4 520.663L319.279 522.106L321.5 520.755L320.652 519.362C320.07 518.406 319.403 518.156 318.651 518.613Z" fill="black"/>
<path d="M649.86 475.6V484H649.248V476.152H644.904L644.796 479.236C644.748 480.388 644.648 481.316 644.496 482.02C644.352 482.716 644.136 483.232 643.848 483.568C643.56 483.904 643.18 484.072 642.708 484.072C642.492 484.072 642.292 484.048 642.108 484L642.18 483.436C642.316 483.468 642.448 483.484 642.576 483.484C642.944 483.484 643.24 483.344 643.464 483.064C643.696 482.776 643.872 482.324 643.992 481.708C644.112 481.092 644.192 480.272 644.232 479.248L644.352 475.6H649.86ZM653.271 477.736H653.871V483.076L658.335 477.736H658.863V484H658.263V478.66L653.799 484H653.271V477.736ZM668.447 483.472V485.632H667.871V484H662.051V477.736H662.651V483.472H666.803V477.736H667.403V483.472H668.447ZM676.135 481.012H670.747C670.763 481.5 670.887 481.936 671.119 482.32C671.351 482.696 671.663 482.988 672.055 483.196C672.455 483.404 672.903 483.508 673.399 483.508C673.807 483.508 674.183 483.436 674.527 483.292C674.879 483.14 675.171 482.92 675.403 482.632L675.751 483.028C675.479 483.356 675.135 483.608 674.719 483.784C674.311 483.96 673.867 484.048 673.387 484.048C672.763 484.048 672.207 483.912 671.719 483.64C671.231 483.368 670.847 482.992 670.567 482.512C670.295 482.032 670.159 481.484 670.159 480.868C670.159 480.26 670.287 479.716 670.543 479.236C670.807 478.748 671.167 478.368 671.623 478.096C672.079 477.824 672.591 477.688 673.159 477.688C673.727 477.688 674.235 477.824 674.683 478.096C675.139 478.36 675.495 478.732 675.751 479.212C676.015 479.692 676.147 480.236 676.147 480.844L676.135 481.012ZM673.159 478.216C672.719 478.216 672.323 478.316 671.971 478.516C671.619 478.708 671.335 478.984 671.119 479.344C670.911 479.696 670.791 480.096 670.759 480.544H675.559C675.535 480.096 675.415 479.696 675.199 479.344C674.983 478.992 674.699 478.716 674.347 478.516C673.995 478.316 673.599 478.216 673.159 478.216ZM678.708 477.736H679.308V483.076L683.772 477.736H684.3V484H683.7V478.66L679.236 484H678.708V477.736ZM681.48 476.776C680.976 476.776 680.568 476.648 680.256 476.392C679.944 476.128 679.784 475.764 679.776 475.3H680.22C680.228 475.628 680.348 475.888 680.58 476.08C680.82 476.272 681.12 476.368 681.48 476.368C681.84 476.368 682.136 476.272 682.368 476.08C682.6 475.888 682.72 475.628 682.728 475.3H683.184C683.176 475.764 683.016 476.128 682.704 476.392C682.392 476.648 681.984 476.776 681.48 476.776ZM701.477 479.344C701.093 479.344 700.745 479.264 700.433 479.104C700.129 478.936 699.889 478.708 699.713 478.42C699.545 478.132 699.461 477.808 699.461 477.448C699.461 477.088 699.545 476.764 699.713 476.476C699.889 476.188 700.129 475.964 700.433 475.804C700.745 475.636 701.093 475.552 701.477 475.552C701.861 475.552 702.205 475.636 702.509 475.804C702.821 475.964 703.065 476.188 703.241 476.476C703.417 476.764 703.505 477.088 703.505 477.448C703.505 477.808 703.417 478.132 703.241 478.42C703.065 478.708 702.821 478.936 702.509 479.104C702.205 479.264 701.861 479.344 701.477 479.344ZM697.565 475.6H698.177V484H697.673L691.949 476.704V484H691.337V475.6H691.853L697.565 482.896V475.6ZM701.477 475.948C701.021 475.948 700.645 476.088 700.349 476.368C700.061 476.648 699.917 477.008 699.917 477.448C699.917 477.888 700.061 478.248 700.349 478.528C700.645 478.8 701.021 478.936 701.477 478.936C701.933 478.936 702.309 478.8 702.605 478.528C702.901 478.248 703.049 477.888 703.049 477.448C703.049 477.008 702.901 476.648 702.605 476.368C702.309 476.088 701.933 475.948 701.477 475.948ZM699.701 480.448H703.265V480.892H699.701V480.448ZM707.952 475.6V484H707.34V476.152H705.288V475.6H707.952Z" fill="black"/>
<defs>
<linearGradient id="paint0_linear" x1="368.5" y1="243" x2="368.5" y2="868.5" gradientUnits="userSpaceOnUse">
<stop stop-color="#A9ACFF"/>
<stop offset="1" stop-color="#A9ACFF" stop-opacity="0.2"/>
</linearGradient>
<linearGradient id="paint1_linear" x1="365" y1="245" x2="365" y2="868.5" gradientUnits="userSpaceOnUse">
<stop stop-color="#A9ACFF"/>
<stop offset="1" stop-color="#A9ACFF" stop-opacity="0.2"/>
</linearGradient>
<linearGradient id="paint2_linear" x1="297.5" y1="15" x2="297.5" y2="347.5" gradientUnits="userSpaceOnUse">
<stop stop-color="#A9ACFF" stop-opacity="0"/>
<stop offset="0.380208" stop-color="#A9ACFF"/>
<stop offset="0.739583" stop-color="#A9ACFF"/>
<stop offset="1" stop-color="#A9ACFF" stop-opacity="0"/>
</linearGradient>
<linearGradient id="paint3_linear" x1="292" y1="1" x2="292" y2="327.5" gradientUnits="userSpaceOnUse">
<stop stop-color="#A9ACFF" stop-opacity="0"/>
<stop offset="0.380208" stop-color="#A9ACFF"/>
<stop offset="0.739583" stop-color="#A9ACFF"/>
<stop offset="1" stop-color="#A9ACFF" stop-opacity="0"/>
</linearGradient>
<linearGradient id="paint4_linear" x1="416" y1="214.5" x2="416" y2="837.5" gradientUnits="userSpaceOnUse">
<stop stop-color="#A9ACFF"/>
<stop offset="1" stop-color="#A9ACFF" stop-opacity="0.2"/>
</linearGradient>
<linearGradient id="paint5_linear" x1="327.25" y1="265.5" x2="327.25" y2="888" gradientUnits="userSpaceOnUse">
<stop stop-color="#A9ACFF"/>
<stop offset="1" stop-color="#A9ACFF" stop-opacity="0.2"/>
</linearGradient>
<linearGradient id="paint6_linear" x1="403.25" y1="222" x2="403.25" y2="845" gradientUnits="userSpaceOnUse">
<stop stop-color="#A9ACFF"/>
<stop offset="1" stop-color="#A9ACFF" stop-opacity="0.2"/>
</linearGradient>
<linearGradient id="paint7_linear" x1="314.25" y1="273" x2="314.25" y2="895.5" gradientUnits="userSpaceOnUse">
<stop stop-color="#A9ACFF"/>
<stop offset="1" stop-color="#A9ACFF" stop-opacity="0.2"/>
</linearGradient>
</defs>
</svg>
