<svg width="14" height="14" viewBox="0 0 14 14" fill="none" xmlns="http://www.w3.org/2000/svg">
<path d="M13.6667 12.0672L9.9945 8.39505C10.6469 7.39063 10.95 6.18628 10.8498 4.98373C10.7434 3.70716 10.1854 2.50441 9.27853 1.59704C8.2495 0.56741 6.88499 0.00021875 5.43635 0C5.43599 0 5.43586 0 5.4355 0C3.98721 0 2.62273 0.566781 1.59365 1.59586C-0.524725 3.71427 -0.524697 7.16114 1.59368 9.27951C2.50103 10.1869 3.7039 10.7453 4.98078 10.8519C6.18379 10.9523 7.38823 10.6493 8.39286 9.99668L12.065 13.6688C12.2858 13.8896 12.5758 14 12.8658 14C13.1559 14 13.4459 13.8896 13.6667 13.6688C14.1082 13.2272 14.1082 12.5088 13.6667 12.0672ZM13.3699 13.372C13.0919 13.65 12.6397 13.6499 12.3618 13.372L8.56748 9.5777C8.52688 9.53709 8.47312 9.51623 8.41903 9.51623C8.37731 9.51623 8.33533 9.52864 8.29905 9.55396C7.34631 10.2184 6.18054 10.5308 5.01572 10.4336C3.83764 10.3353 2.72776 9.81999 1.89052 8.98272C-0.0642561 7.028 -0.0642833 3.8474 1.89047 1.89265C2.84033 0.942785 4.09924 0.419727 5.4355 0.419727C5.43575 0.419727 5.43605 0.419727 5.43629 0.419727C6.7728 0.419918 8.03193 0.943414 8.98168 1.89375C9.81846 2.73101 10.3334 3.84079 10.4315 5.01862C10.5284 6.18075 10.2172 7.34437 9.55541 8.29593C9.41298 8.47211 9.01947 8.94346 8.82643 9.11083C8.73884 9.18676 8.72941 9.3193 8.80534 9.40685C8.84685 9.45473 8.90529 9.47923 8.96399 9.47923C9.01272 9.47923 9.06169 9.46236 9.1014 9.42793C9.27918 9.27377 9.56528 8.94119 9.73902 8.73313L13.3699 12.364C13.6478 12.6419 13.6478 13.0941 13.3699 13.372Z" fill="black"/>
</svg>
