<svg width="911" height="1049" viewBox="0 0 911 1049" fill="none" xmlns="http://www.w3.org/2000/svg">
<path d="M253.457 -103.653L121.138 -378.629L140.779 -390H158.353L216.242 -334.178V-317.638L230.715 -297.997L245.187 -287.66L276.199 -322.807H294.807L306.178 -305.233H323.752L359.932 -262.85L364.067 -240.107L384.742 -217.365H412.653L416.788 -203.926H462.273L501.555 -160.509H523.264L558.411 -147.071V-103.653L579.086 -72.6411H594.592L583.221 -95.3835L589.423 -121.227L606.997 -117.092L626.638 -91.2485L618.368 -54.0338L697.966 -39.5614L730.012 16.2607L752.755 77.2515V127.905L740.35 136.175V211.638L730.012 277.798L712.439 320.181L687.629 365.666V396.678L676.258 401.847V426.656L687.629 438.028V470.074L752.755 523.828L763.092 564.144V587.92L748.62 599.291V618.932L789.969 657.181L803.408 698.531L819.948 708.868L831.319 727.475V790.534L860.264 811.209L911 910.836V1049H518.095V1036.56H529.466L536.702 1021.06L518.095 1008.65H506.724L476.745 966.27H421.957L386.81 922.853L328.92 937.325L286.537 892.874L262.761 882.537L236.917 877.368L139 720L108 689L77.5 660.5L55.5 644.776L48.5 628L63.5 621.5H84.5L121 628L143 641L164.5 662L176.5 590L189.365 584.819V570.347L185.23 542.436L168.69 510.39V483.512L89.092 408.049L53.9448 383.239L25 316.046V301.574H40.5061L94.2607 356.362L126.307 378.071H141.813L149.049 392.543L166.623 396.678L189.365 421.488H199.702L203.837 414.252L233.816 452.5H245.187V421.488H233.816L230.715 396.678L213.141 349.126L199.702 320.181V296.405L189.365 282.966V261.258H199.702L216.242 282.966V296.405L223.479 301.574H233.816V290.202L226.58 282.966V242.65L199.702 221.975L181.095 181.659L158.353 136.175L129.408 81.3865L126.307 56.5767L119.071 47.273H129.408L189.365 122.736V140.31L216.242 167.187L233.816 194.064L245.187 211.638L257.592 238.515H276.199L257.592 174.423L199.702 89.6564L158.353 -2.34665L129.408 -44.7301V-72.6411H134.577L185.23 4.88956L199.702 9.02454L233.816 56.5767L294.807 181.659L305.144 221.975V290.202L314.448 296.405L325.819 346.025L343.393 356.362V371.868L374.405 396.678V414.252L402.316 431.825V452.5L426.092 457.669L450.902 431.825V408.049L442.632 401.847L437.463 365.666L387.844 301.574V254.021L402.316 242.65L413.687 277.798L458.138 320.181H488.117L506.724 328.451L536.702 352.227L542.905 346.025V335.687L583.221 296.405H599.761L635.942 221.975L542.905 4.88956L536.702 -14.7516H523.264L513.96 -2.34665L426.092 -34.3926L350.629 -129.497H345.46L359.932 -95.3835L326.853 -117.092H306.178L288.604 -95.3835L262.761 -129.497L253.457 -103.653Z" fill="#EFF8FF"/>
<path d="M427.126 500.052L406.451 460.77L397.147 477.31L406.451 489.715L408.519 532.098L427.126 541.402V500.052Z" fill="#D4D8FF"/>
<path d="M465.374 413.218L497.42 386.341L510.859 409.083L521.197 442.163V460.77L507.758 485.58L497.42 580.684L455.037 582.752V613.764H441.598L427.126 597.224L444.7 582.752V494.883L455.037 485.58V449.399L465.374 442.163V413.218Z" fill="#D3D7FF"/>
<path d="M100 702.5L110.5 691.5L77.5 660.5L55.5 645L48.5 628L63.5 621.5H68.5V610.5L41 604L36.5 610.5L41 621.5L23.5 633L16.5 613.5L8.75 618.25L1 623L7.5 641L23.5 645.5L20 651L38 659.5L30 676L41 693L48.5 687L59.5 691L55 695L58 696.5L72 685.5L81 691L75.5 696.5L78 704L88.5 696.5L91 702.5L86 712L93.5 725.5L103 709.5L100 702.5Z" fill="white" fill-opacity="0.8" stroke="#A6A9B6" stroke-opacity="0.3"/>
<circle cx="42" cy="677" r="1" fill="black" fill-opacity="0.2"/>
</svg>
