<svg width="917" height="970" viewBox="0 0 917 970" fill="none" xmlns="http://www.w3.org/2000/svg">
<g filter="url(#filter0_d)">
<circle cx="458.5" cy="511.5" r="388.5" fill="#EFF8FF" fill-opacity="0.04"/>
</g>
<g filter="url(#filter1_d)">
<path d="M381.192 64.8152H317.136V50.257L351.493 52.0039L360.811 54.3333V49.0923L371.293 47.9276L369.546 40.9397L375.951 39.1927L371.293 32.2048H365.469L362.558 22.3052V7.74699L365.469 6L377.116 18.8112L388.763 22.3052H404.485L412.056 16.4819L416.132 18.8112L419.626 35.1164L424.285 36.2811L427.196 50.257L438.26 57.2449H449.907L455.148 52.0039H469.706L475.529 56.0802L489.505 57.2449L486.011 54.3333V47.9276L481.353 46.1807L480.188 36.2811H489.505L499.405 49.0923V53.7509L493.582 54.3333L492.417 57.2449L501.152 59.5742L502.317 76.4617L495.911 85.1967H502.317L508.14 88.1083L513.381 79.3734L520.369 77.6264V72.3854L530.851 70.6385L541.915 64.8152L540.75 59.5742L534.927 56.0802L530.851 47.9276V39.1927L533.18 35.1164L549.485 50.257L556.473 49.0923L562.296 53.7509L561.132 58.4096H554.144L556.473 65.9798H547.738L537.839 68.8915L543.08 76.4617L539.586 77.6264V81.7027H544.244V88.1083L539.586 90.4376V102.084L536.674 103.831L543.08 109.654L540.75 116.642L549.485 120.719L550.65 124.213L556.473 127.124L551.814 133.53L530.851 122.466L518.039 114.313L510.469 107.325V102.084L502.317 90.4376L494.164 88.1083L487.758 93.9316V102.084L477.276 120.719L460.389 144.594H456.313L448.16 150.417H438.26L430.69 155.658L416.714 153.911L410.309 157.405L398.662 152.747L381.775 149.253L373.04 152.747L367.216 155.658L356.734 170.799L349.747 187.104V202.827L356.734 217.968L367.216 222.626L373.04 220.879L381.775 230.196L392.839 233.108L391.092 250.578V263.971L396.915 266.883L405.65 274.453L413.803 284.935L421.373 282.024L417.879 290.759L423.12 301.241L430.69 302.987L442.337 310.558L452.819 323.951L469.124 328.61L471.453 336.763L482.517 344.333L488.341 341.421L494.746 346.662L501.152 358.309L528.521 374.614L534.927 375.779L539.003 382.184L575.69 422.365L585.007 426.441L589.666 420.618L597.236 422.365L598.401 428.188L607.136 440.417L615.288 443.911L611.794 446.823L617.618 451.481L622.859 445.658L626.935 448.57L622.859 457.305L626.935 462.545L633.34 459.051L653.722 475.939H658.381L657.216 482.345L702.638 518.449L707.878 516.702L713.702 519.614V525.437L720.107 531.26L723.601 534.754V542.324L739.907 566.2L762.035 591.822L781.834 599.975L789.987 593.569L792.316 601.14L793.481 608.71L806.292 630.256L827.838 653.549H839.485V650.055L845.89 653.549L847.055 661.702L807.457 705.959L771.352 659.372L753.3 672.766L784.746 722.264L807.457 776.42L798.139 783.408V793.89L791.151 795.637V800.296L767.276 802.625L773.099 819.513L780.087 825.336V829.412L777.176 833.489L771.352 829.412L762.035 838.73L754.465 830.577L750.388 833.489H729.425L731.754 856.199L746.312 869.011L742.236 874.834L750.388 882.987L754.465 881.822L757.959 888.228L745.148 895.798L729.425 871.922H724.184V865.517L709.043 849.794V830.577L701.473 827.665L703.22 804.955L699.726 783.408L712.537 778.75L718.36 785.155L734.083 770.597V765.939L721.854 731.581L727.095 730.417L725.931 722.264L730.589 717.023L740.489 713.529L718.36 690.818L707.878 675.095L688.662 690.818L650.81 733.91L631.593 743.228L624.023 740.898V733.91L625.77 731.581V718.77L618.2 717.023V688.489H620.529V683.83L612.959 678.589L627.517 669.272L631.593 672.766L665.369 638.991L619.365 637.826L612.959 622.103H608.3L606.553 607.545H598.401L583.843 601.722L545.991 626.762L507.558 665.196L514.545 678.589L511.634 680.336L507.558 676.26L479.606 680.336L476.694 683.83L461.554 672.766L463.301 666.943L476.694 663.449V659.372H485.429L489.505 663.449L498.823 649.473V637.826L492.999 630.256L472.035 629.091V625.015L444.464 623.029L422.578 614.39L421.373 616.28L414.385 611.622L403.321 630.256H399.827V629.091H396.915V633.168L383.522 645.397H354.405V622.103H358.481V617.445L342.759 612.786L338.1 603.469L325.289 611.622L320.048 603.469L325.289 599.975L320.048 584.834L332.859 577.846L327.618 569.112V563.288L329.947 560.959L316.554 537.083L302.578 546.983L296.755 537.083L286.855 544.654L278.12 531.843L303.743 514.955L294.425 494.574H313.06L318.883 482.927L313.06 457.887H303.743L306.654 441.582L336.935 434.594L334.606 421.782L327.618 421.2L328.783 412.465H335.188V405.477L329.947 400.236L278.12 396.16V391.501H273.462L270.55 379.855L254.827 368.791L258.903 357.726L251.915 351.903H242.598V349.574H226.293L216.976 361.803L207.076 347.827L227.458 336.18L223.381 328.61L236.192 311.722L239.686 308.228L209.988 283.188L204.747 282.024L206.596 276.306L197.381 275.154L195.43 280.277L180.289 288.429L161.654 277.947L151.173 291.341L115.651 262.807L105.751 280.277L98.1807 266.883L94.6867 222.044L58 147.506L74.3052 139.353L66.1526 132.365L77.2168 125.96L81.2931 132.365L102.839 121.301L105.169 107.907L116.815 98.0079L113.321 91.6023L145.932 73.5501H159.325L160.49 76.4617L191.353 78.791L192.518 88.6906H184.948L186.112 103.249L181.454 120.136L176.795 121.301L166.895 156.241V170.799L170.972 185.939L222.799 223.208L225.128 217.968L215.811 209.233L218.14 198.751L229.205 187.104L249.004 202.245H276.373L304.325 178.369L301.996 171.964L307.819 167.887L311.895 171.964L342.759 144.594L356.734 142.847L360.811 150.417L369.546 134.695V118.972L374.204 110.819L381.192 108.49L393.421 88.1083V63.6505L381.192 64.8152Z" fill="white"/>
<path d="M381.192 64.8152H317.136V50.257L351.493 52.0039L360.811 54.3333V49.0923L371.293 47.9276L369.546 40.9397L375.951 39.1927L371.293 32.2048H365.469L362.558 22.3052V7.74699L365.469 6L377.116 18.8112L388.763 22.3052H404.485L412.056 16.4819L416.132 18.8112L419.626 35.1164L424.285 36.2811L427.196 50.257L438.26 57.2449H449.907L455.148 52.0039H469.706L475.529 56.0802L489.505 57.2449L486.011 54.3333V47.9276L481.353 46.1807L480.188 36.2811H489.505L499.405 49.0923V53.7509L493.582 54.3333L492.417 57.2449L501.152 59.5742L502.317 76.4617L495.911 85.1967H502.317L508.14 88.1083L513.381 79.3734L520.369 77.6264V72.3854L530.851 70.6385L541.915 64.8152L540.75 59.5742L534.927 56.0802L530.851 47.9276V39.1927L533.18 35.1164L549.485 50.257L556.473 49.0923L562.296 53.7509L561.132 58.4096H554.144L556.473 65.9798H547.738L537.839 68.8915L543.08 76.4617L539.586 77.6264V81.7027H544.244V88.1083L539.586 90.4376V102.084L536.674 103.831L543.08 109.654L540.75 116.642L549.485 120.719L550.65 124.213L556.473 127.124L551.814 133.53L530.851 122.466L518.039 114.313L510.469 107.325V102.084L502.317 90.4376L494.164 88.1083L487.758 93.9316V102.084L477.276 120.719L460.389 144.594H456.313L448.16 150.417H438.26L430.69 155.658L416.714 153.911L410.309 157.405L398.662 152.747L381.775 149.253L373.04 152.747L367.216 155.658L356.734 170.799L349.747 187.104V202.827L356.734 217.968L367.216 222.626L373.04 220.879L381.775 230.196L392.839 233.108L391.092 250.578V263.971L396.915 266.883L405.65 274.453L413.803 284.935L421.373 282.024L417.879 290.759L423.12 301.241L430.69 302.987L442.337 310.558L452.819 323.951L469.124 328.61L471.453 336.763L482.517 344.333L488.341 341.421L494.746 346.662L501.152 358.309L528.521 374.614L534.927 375.779L539.003 382.184L575.69 422.365L585.007 426.441L589.666 420.618L597.236 422.365L598.401 428.188L607.136 440.417L615.288 443.911L611.794 446.823L617.618 451.481L622.859 445.658L626.935 448.57L622.859 457.305L626.935 462.545L633.34 459.051L653.722 475.939H658.381L657.216 482.345L702.638 518.449L707.878 516.702L713.702 519.614V525.437L720.107 531.26L723.601 534.754V542.324L739.907 566.2L762.035 591.822L781.834 599.975L789.987 593.569L792.316 601.14L793.481 608.71L806.292 630.256L827.838 653.549H839.485V650.055L845.89 653.549L847.055 661.702L807.457 705.959L771.352 659.372L753.3 672.766L784.746 722.264L807.457 776.42L798.139 783.408V793.89L791.151 795.637V800.296L767.276 802.625L773.099 819.513L780.087 825.336V829.412L777.176 833.489L771.352 829.412L762.035 838.73L754.465 830.577L750.388 833.489H729.425L731.754 856.199L746.312 869.011L742.236 874.834L750.388 882.987L754.465 881.822L757.959 888.228L745.148 895.798L729.425 871.922H724.184V865.517L709.043 849.794V830.577L701.473 827.665L703.22 804.955L699.726 783.408L712.537 778.75L718.36 785.155L734.083 770.597V765.939L721.854 731.581L727.095 730.417L725.931 722.264L730.589 717.023L740.489 713.529L718.36 690.818L707.878 675.095L688.662 690.818L650.81 733.91L631.593 743.228L624.023 740.898V733.91L625.77 731.581V718.77L618.2 717.023V688.489H620.529V683.83L612.959 678.589L627.517 669.272L631.593 672.766L665.369 638.991L619.365 637.826L612.959 622.103H608.3L606.553 607.545H598.401L583.843 601.722L545.991 626.762L507.558 665.196L514.545 678.589L511.634 680.336L507.558 676.26L479.606 680.336L476.694 683.83L461.554 672.766L463.301 666.943L476.694 663.449V659.372H485.429L489.505 663.449L498.823 649.473V637.826L492.999 630.256L472.035 629.091V625.015L444.464 623.029L422.578 614.39L421.373 616.28L414.385 611.622L403.321 630.256H399.827V629.091H396.915V633.168L383.522 645.397H354.405V622.103H358.481V617.445L342.759 612.786L338.1 603.469L325.289 611.622L320.048 603.469L325.289 599.975L320.048 584.834L332.859 577.846L327.618 569.112V563.288L329.947 560.959L316.554 537.083L302.578 546.983L296.755 537.083L286.855 544.654L278.12 531.843L303.743 514.955L294.425 494.574H313.06L318.883 482.927L313.06 457.887H303.743L306.654 441.582L336.935 434.594L334.606 421.782L327.618 421.2L328.783 412.465H335.188V405.477L329.947 400.236L278.12 396.16V391.501H273.462L270.55 379.855L254.827 368.791L258.903 357.726L251.915 351.903H242.598V349.574H226.293L216.976 361.803L207.076 347.827L227.458 336.18L223.381 328.61L236.192 311.722L239.686 308.228L209.988 283.188L204.747 282.024L206.596 276.306L197.381 275.154L195.43 280.277L180.289 288.429L161.654 277.947L151.173 291.341L115.651 262.807L105.751 280.277L98.1807 266.883L94.6867 222.044L58 147.506L74.3052 139.353L66.1526 132.365L77.2168 125.96L81.2931 132.365L102.839 121.301L105.169 107.907L116.815 98.0079L113.321 91.6023L145.932 73.5501H159.325L160.49 76.4617L191.353 78.791L192.518 88.6906H184.948L186.112 103.249L181.454 120.136L176.795 121.301L166.895 156.241V170.799L170.972 185.939L222.799 223.208L225.128 217.968L215.811 209.233L218.14 198.751L229.205 187.104L249.004 202.245H276.373L304.325 178.369L301.996 171.964L307.819 167.887L311.895 171.964L342.759 144.594L356.734 142.847L360.811 150.417L369.546 134.695V118.972L374.204 110.819L381.192 108.49L393.421 88.1083V63.6505L381.192 64.8152Z" stroke="#A9ACFF" stroke-opacity="0.6"/>
</g>
<path d="M499.756 595.384L519.914 595.959L536.617 587.896L550.44 578.681L557.351 576.377L584.997 576.953" stroke="black" stroke-opacity="0.05"/>
<path d="M335.609 381.705V422.598L341.368 453.699L348.856 486.528L354.615 496.896M335.609 381.705L352.311 386.313L386.293 404.743L377.077 430.085L380.533 434.693L388.596 435.845L432.369 434.693L443.888 441.604M335.609 381.705L324.666 375.946L306.811 360.971L299.9 362.699L294.716 360.971L290.109 353.483L285.501 350.604V345.42L264.767 324.11L277.438 318.926L257.855 297.04L245.184 290.705L230.785 288.401L215.235 277.458L207.171 275.154L195.076 273.426L188.165 267.667L176.646 264.787L172.614 260.755L154.184 261.907L130.57 252.692L124.81 253.268L116.171 261.907" stroke="black" stroke-opacity="0.05"/>
<path d="M449.072 438.148L359.224 498.048" stroke="black" stroke-opacity="0.05"/>
<path d="M338.489 603.447L391.477 572.921" stroke="black" stroke-opacity="0.05"/>
<path d="M500.908 627.061L511.851 628.213H529.705L540.648 624.757L547.56 621.877L569.446 608.63L582.693 599.415L586.149 561.402L596.516 548.155M596.516 548.155L597.668 540.092M596.516 548.155L609.763 561.402L623.01 582.713L639.136 593.656L656.991 616.694L663.326 620.149L671.966 621.877L688.092 631.669L699.611 636.276M597.668 540.092L628.193 541.244L637.408 545.276L647.776 552.187L655.263 563.13L658.143 575.801V580.985L690.972 613.238L702.491 631.669M597.668 540.092L582.117 537.788L578.085 536.06L551.591 496.896M597.668 540.092V522.238L594.788 513.598L583.845 485.953L576.357 473.858L563.686 463.49V448.516M702.491 631.669L699.611 636.276M702.491 631.669L708.251 625.333L735.896 609.782L741.656 598.263L750.295 590.2L725.529 570.618L705.947 546.428L686.364 532.605L670.814 529.149L627.617 486.528L623.01 482.497L607.796 462.338M699.611 636.276L722.649 647.795L747.991 667.378L760.662 695.599L781.972 722.669L788.308 741.099L805.587 777.384M551.591 496.896L530.281 510.143M551.591 496.896L607.796 462.338M530.281 510.143L505.515 472.13M530.281 510.143L500.496 528.573M505.515 472.13L488.237 446.212M505.515 472.13L526.25 458.883L518.186 446.788M505.515 472.13L483.053 487.104M488.237 446.212L502.989 436.65M488.237 446.212L468.654 458.883M488.237 446.212L462.895 403.015L457.711 397.256L398.388 370.762L374.198 369.034M550.44 405.895L543.331 410.503M502.989 436.65L514.155 443.332M502.989 436.65L532.009 417.841M483.053 487.104L467.502 462.338M483.053 487.104L441.585 514.174L434.673 531.453L424.306 547.003L410.483 560.826L397.236 570.042M483.053 487.104L488.813 496.896L492.844 508.991L494.572 518.206L500.496 528.573M467.502 462.338L465.083 458.307M467.502 462.338L468.654 458.883M467.502 462.338L464.623 464.066L462.319 460.035L465.083 458.307M563.686 443.332L547.56 443.544M563.686 443.332V448.516M563.686 443.332H573.478L575.206 441.604M563.686 443.332V441.604L543.331 410.503M519.914 443.908L547.56 443.544M498.028 623.029L499.756 594.808V560.25L503.787 534.333L500.496 528.573M468.654 458.883L465.083 458.307M374.198 369.034L436.977 403.015L442.161 408.199L444.464 412.231L451.376 433.541M374.198 369.034L338.489 354.635L311.995 328.142M374.198 369.034L411.635 315.914M453.68 439.3L465.083 458.307M547.56 443.544V441.604L532.009 417.841M532.009 417.841L518.186 397.256L507.243 375.37L494.572 363.851L427.186 313.743L416.819 308.559L411.635 315.914M532.009 417.841L543.331 410.503M311.995 328.142L307.964 318.926M311.995 328.142V322.382L307.964 318.926M307.964 318.926L287.805 275.73L269.951 255.572L261.887 244.628L237.121 228.245M224.45 219.862L237.121 228.245M237.121 228.245L216.963 247.508L208.324 248.66L166.279 242.325L121.355 229.078H99.4688M577.509 448.516L591.332 459.459L599.971 451.971L607.796 462.338M577.509 448.516H563.686M577.509 448.516L575.206 441.604M575.206 441.604L593.636 426.053M411.635 315.914L389.173 300.496L341.369 212.375L343.097 183.577L349.432 178.394L360.951 151.324" stroke="black" stroke-opacity="0.05"/>
<path d="M378.5 312.5L494 394" stroke="black" stroke-opacity="0.05"/>
<circle cx="394.356" cy="571.193" r="2.95572" stroke="black" stroke-opacity="0.05"/>
<circle cx="498.028" cy="626.485" r="2.95572" stroke="black" stroke-opacity="0.05"/>
<circle cx="356.343" cy="499.775" r="2.95572" stroke="black" stroke-opacity="0.05"/>
<circle cx="96.0133" cy="229.078" r="2.95572" stroke="black" stroke-opacity="0.05"/>
<circle cx="451.952" cy="436.421" r="2.95572" stroke="black" stroke-opacity="0.05"/>
<path d="M395.508 574.073L398.964 587.32L402.995 595.959L408.179 602.871L422.578 612.086L432.945 617.27L445.616 621.301L470.958 624.181L494.572 626.485" stroke="black" stroke-opacity="0.05"/>
<path d="M520.059 445.572C519.9 446.021 519.479 446.384 518.831 446.562C518.185 446.741 517.36 446.717 516.52 446.419C515.679 446.122 515.023 445.621 514.633 445.076C514.242 444.53 514.143 443.982 514.302 443.533C514.461 443.084 514.882 442.721 515.53 442.542C516.176 442.364 517.001 442.388 517.841 442.686C518.682 442.983 519.338 443.484 519.728 444.029C520.119 444.575 520.218 445.123 520.059 445.572Z" stroke="black" stroke-opacity="0.05"/>
<path d="M393.204 568.314L388.597 555.067L377.078 534.333L358.071 502.655" stroke="black" stroke-opacity="0.05"/>
<path d="M367.004 522.6V531H366.128V523.368H362.072L361.976 526.176C361.936 527.336 361.84 528.272 361.688 528.984C361.544 529.688 361.32 530.216 361.016 530.568C360.712 530.912 360.308 531.084 359.804 531.084C359.588 531.084 359.364 531.056 359.132 531L359.204 530.208C359.34 530.24 359.472 530.256 359.6 530.256C359.952 530.256 360.236 530.116 360.452 529.836C360.676 529.556 360.844 529.124 360.956 528.54C361.068 527.948 361.144 527.168 361.184 526.2L361.304 522.6H367.004ZM370.234 524.688H371.086V529.704L375.298 524.688H376.054V531H375.202V525.984L371.002 531H370.234V524.688ZM385.672 530.256V532.584H384.868V531H379.096V524.688H379.948V530.256H383.8V524.688H384.652V530.256H385.672ZM393.419 528.108H388.139C388.187 528.764 388.439 529.296 388.895 529.704C389.351 530.104 389.927 530.304 390.623 530.304C391.015 530.304 391.375 530.236 391.703 530.1C392.031 529.956 392.315 529.748 392.555 529.476L393.035 530.028C392.755 530.364 392.403 530.62 391.979 530.796C391.563 530.972 391.103 531.06 390.599 531.06C389.951 531.06 389.375 530.924 388.871 530.652C388.375 530.372 387.987 529.988 387.707 529.5C387.427 529.012 387.287 528.46 387.287 527.844C387.287 527.228 387.419 526.676 387.683 526.188C387.955 525.7 388.323 525.32 388.787 525.048C389.259 524.776 389.787 524.64 390.371 524.64C390.955 524.64 391.479 524.776 391.943 525.048C392.407 525.32 392.771 525.7 393.035 526.188C393.299 526.668 393.431 527.22 393.431 527.844L393.419 528.108ZM390.371 525.372C389.763 525.372 389.251 525.568 388.835 525.96C388.427 526.344 388.195 526.848 388.139 527.472H392.615C392.559 526.848 392.323 526.344 391.907 525.96C391.499 525.568 390.987 525.372 390.371 525.372ZM395.917 524.688H396.769V529.704L400.981 524.688H401.737V531H400.885V525.984L396.685 531H395.917V524.688ZM398.785 523.776C398.241 523.776 397.809 523.64 397.489 523.368C397.169 523.096 397.005 522.712 396.997 522.216H397.609C397.617 522.528 397.729 522.78 397.945 522.972C398.161 523.156 398.441 523.248 398.785 523.248C399.129 523.248 399.409 523.156 399.625 522.972C399.849 522.78 399.965 522.528 399.973 522.216H400.585C400.577 522.712 400.409 523.096 400.081 523.368C399.761 523.64 399.329 523.776 398.785 523.776ZM418.959 526.368C418.567 526.368 418.211 526.288 417.891 526.128C417.579 525.96 417.331 525.732 417.147 525.444C416.971 525.148 416.883 524.816 416.883 524.448C416.883 524.08 416.971 523.752 417.147 523.464C417.331 523.176 417.579 522.952 417.891 522.792C418.211 522.624 418.567 522.54 418.959 522.54C419.351 522.54 419.703 522.624 420.015 522.792C420.335 522.952 420.583 523.176 420.759 523.464C420.943 523.752 421.035 524.08 421.035 524.448C421.035 524.816 420.943 525.148 420.759 525.444C420.583 525.732 420.335 525.96 420.015 526.128C419.703 526.288 419.351 526.368 418.959 526.368ZM414.819 522.6H415.695V531H414.963L409.563 524.184V531H408.675V522.6H409.407L414.819 529.416V522.6ZM418.959 523.068C418.535 523.068 418.187 523.196 417.915 523.452C417.643 523.708 417.507 524.04 417.507 524.448C417.507 524.856 417.639 525.188 417.903 525.444C418.175 525.7 418.527 525.828 418.959 525.828C419.391 525.828 419.739 525.7 420.003 525.444C420.275 525.188 420.411 524.856 420.411 524.448C420.411 524.04 420.275 523.708 420.003 523.452C419.731 523.196 419.383 523.068 418.959 523.068ZM417.123 527.4H420.795V528H417.123V527.4ZM425.601 522.6V531H424.737V523.368H422.757V522.6H425.601Z" fill="black"/>
<circle cx="357" cy="542" r="2" fill="black"/>
<circle cx="371.5" cy="567.5" r="1.5" fill="black" fill-opacity="0.5"/>
<path d="M470.5 414L475.5 412.5L504 372.5" stroke="black" stroke-opacity="0.05"/>
<defs>
<filter id="filter0_d" x="0" y="53" width="917" height="917" filterUnits="userSpaceOnUse" color-interpolation-filters="sRGB">
<feFlood flood-opacity="0" result="BackgroundImageFix"/>
<feColorMatrix in="SourceAlpha" type="matrix" values="0 0 0 0 0 0 0 0 0 0 0 0 0 0 0 0 0 0 127 0"/>
<feOffset/>
<feGaussianBlur stdDeviation="35"/>
<feColorMatrix type="matrix" values="0 0 0 0 0.937255 0 0 0 0 0.972549 0 0 0 0 1 0 0 0 0.1 0"/>
<feBlend mode="normal" in2="BackgroundImageFix" result="effect1_dropShadow"/>
<feBlend mode="normal" in="SourceGraphic" in2="effect1_dropShadow" result="shape"/>
</filter>
<filter id="filter1_d" x="43.332" y="0.360352" width="814.251" height="915.11" filterUnits="userSpaceOnUse" color-interpolation-filters="sRGB">
<feFlood flood-opacity="0" result="BackgroundImageFix"/>
<feColorMatrix in="SourceAlpha" type="matrix" values="0 0 0 0 0 0 0 0 0 0 0 0 0 0 0 0 0 0 127 0"/>
<feOffset dx="-2" dy="7"/>
<feGaussianBlur stdDeviation="6"/>
<feColorMatrix type="matrix" values="0 0 0 0 0 0 0 0 0 0 0 0 0 0 0 0 0 0 0.08 0"/>
<feBlend mode="normal" in2="BackgroundImageFix" result="effect1_dropShadow"/>
<feBlend mode="normal" in="SourceGraphic" in2="effect1_dropShadow" result="shape"/>
</filter>
</defs>
</svg>
