<svg width="1563" height="919" viewBox="0 0 1563 919" fill="none" xmlns="http://www.w3.org/2000/svg">
<g filter="url(#filter0_d)">
<path d="M1 911C1 911 114 915.174 248 881C382 846.826 469 803.5 469 803.5C469 803.5 586.5 794.041 700 756C813.5 717.959 904 663 904 663C904 663 1007 640 1057 614.5C1107 589 1189.5 531 1189.5 531C1189.5 531 1301.04 502 1376 394C1450.96 286 1528.5 67.5 1528.5 67.5" stroke="#AABDFF"/>
</g>
<g filter="url(#filter1_d)">
<circle cx="1541" cy="29" r="4" fill="#7C9EF7"/>
</g>
<g filter="url(#filter2_d)">
<path d="M1516 63.7417L1540.58 29.9619L1540.58 71.7416L1516 63.7417Z" stroke="#8298D2"/>
</g>
<g filter="url(#filter3_d)">
<line x1="1540.5" y1="72" x2="1540.5" y2="912" stroke="#AABDFF" stroke-opacity="0.7" stroke-dasharray="10 15"/>
</g>
<g filter="url(#filter4_d)">
<line x1="1189.5" y1="530" x2="1189.5" y2="912" stroke="#AABDFF" stroke-opacity="0.7" stroke-dasharray="10 15"/>
</g>
<g filter="url(#filter5_d)">
<line x1="904.5" y1="663" x2="904.5" y2="912" stroke="#AABDFF" stroke-opacity="0.7" stroke-dasharray="10 15"/>
</g>
<g filter="url(#filter6_d)">
<line x1="469.5" y1="804" x2="469.5" y2="912" stroke="#AABDFF" stroke-opacity="0.7" stroke-dasharray="10 15"/>
</g>
<g filter="url(#filter7_d)">
<path d="M479 781.837V788.722C479 790.931 477.209 792.722 475 792.722H469H463C460.791 792.722 459 790.931 459 788.722V781.837C459 776.7 458.954 770.866 462.919 767.599C463.805 766.868 464.879 766.253 466.172 765.882C467.018 765.639 467.957 765.5 469 765.5C469.931 765.5 470.779 765.611 471.552 765.807C472.97 766.168 474.133 766.817 475.082 767.599C479.046 770.866 479 776.7 479 781.837Z" stroke="#2295FF"/>
<path d="M473.639 779.111H464.361C462.704 779.111 461.361 780.454 461.361 782.111V788.333C461.361 789.99 462.704 791.333 464.361 791.333H473.639C475.296 791.333 476.639 789.99 476.639 788.333V782.111C476.639 780.454 475.296 779.111 473.639 779.111Z" stroke="#2295FF"/>
<path d="M461.361 781.889H476.639" stroke="#2295FF"/>
<path d="M463.583 783L462.889 781.889L464 782.722L463.583 783Z" stroke="#2295FF"/>
<path d="M472.309 766.132C472.309 765.301 471.979 764.504 471.392 763.917C470.804 763.33 470.008 763 469.177 763C468.347 763 467.55 763.33 466.963 763.917C466.376 764.504 466.046 765.301 466.046 766.132L466.644 766.132C466.644 765.46 466.911 764.815 467.386 764.34C467.861 763.865 468.505 763.598 469.177 763.598C469.849 763.598 470.494 763.865 470.969 764.34C471.444 764.815 471.711 765.46 471.711 766.132H472.309Z" fill="#2295FF"/>
</g>
<g filter="url(#filter8_d)">
<g clip-path="url(#clip0)">
<path d="M911.809 636.567L912.24 635.419C912.26 635.366 912.262 635.307 912.245 635.253C912.229 635.199 912.194 635.151 912.148 635.118C912.102 635.085 912.046 635.068 911.989 635.07C911.932 635.072 911.877 635.093 911.833 635.129L907.69 638.541C907.577 638.635 907.492 638.759 907.447 638.898C907.401 639.038 907.396 639.187 907.432 639.33C907.455 639.421 907.481 639.521 907.506 639.618C907.525 639.69 907.521 639.767 907.494 639.837C907.467 639.907 907.419 639.967 907.357 640.008L907.347 640.015C907.28 640.059 907.201 640.08 907.122 640.073C907.042 640.067 906.968 640.034 906.909 639.979L906.294 639.103L906.146 638.364C906.12 638.238 906.12 638.109 906.145 637.984C906.17 637.859 906.219 637.74 906.29 637.633C906.41 637.454 906.587 637.319 906.792 637.25C906.878 637.221 906.97 637.21 907.061 637.216C907.152 637.222 907.241 637.247 907.323 637.288L908.004 637.628C908.048 637.651 908.098 637.66 908.147 637.654C908.196 637.649 908.242 637.63 908.281 637.599C908.32 637.568 908.349 637.527 908.364 637.48C908.38 637.433 908.382 637.382 908.37 637.334L908.204 636.671C908.15 636.455 908.031 636.261 907.864 636.115L908.07 635.087C908.095 634.963 908.073 634.835 908.01 634.726C907.947 634.616 907.846 634.534 907.726 634.494L907.379 634.378L907.376 634.377C907.365 634.373 907.354 634.371 907.344 634.368V634.036C907.344 633.967 907.317 633.901 907.268 633.853C907.22 633.804 907.154 633.777 907.085 633.777C907.017 633.777 906.951 633.804 906.902 633.853C906.854 633.901 906.827 633.967 906.827 634.036V634.367C906.816 634.37 906.805 634.373 906.794 634.376L906.791 634.377L906.445 634.494C906.325 634.534 906.224 634.616 906.161 634.725C906.097 634.835 906.076 634.963 906.1 635.087L906.267 635.915C906.137 635.946 906.011 635.988 905.888 636.04L905.561 635.549L905.884 634.58C905.946 634.392 905.935 634.188 905.851 634.008C905.768 633.829 905.62 633.688 905.436 633.614L904.758 633.343V633.002C904.758 632.933 904.731 632.867 904.683 632.819C904.634 632.77 904.568 632.743 904.5 632.743C904.431 632.743 904.366 632.77 904.317 632.819C904.269 632.867 904.241 632.933 904.241 633.002V633.343L903.563 633.614C903.38 633.688 903.231 633.829 903.148 634.008C903.065 634.188 903.053 634.392 903.115 634.58L903.438 635.549L903.111 636.04C902.988 635.988 902.862 635.946 902.733 635.915L902.899 635.087C902.923 634.963 902.902 634.835 902.839 634.725C902.775 634.616 902.674 634.534 902.554 634.494L902.208 634.377L902.205 634.376C902.194 634.373 902.183 634.37 902.172 634.367V634.036C902.172 633.967 902.145 633.901 902.097 633.853C902.048 633.804 901.982 633.777 901.914 633.777C901.845 633.777 901.779 633.804 901.731 633.853C901.682 633.901 901.655 633.967 901.655 634.036V634.367C901.644 634.37 901.634 634.373 901.623 634.376L901.62 634.377L901.274 634.494C901.154 634.534 901.053 634.616 900.989 634.725C900.926 634.835 900.904 634.963 900.929 635.087L901.135 636.115C900.968 636.261 900.849 636.455 900.795 636.671L900.629 637.334C900.617 637.382 900.619 637.433 900.635 637.48C900.651 637.526 900.679 637.568 900.718 637.599C900.757 637.63 900.803 637.649 900.852 637.654C900.902 637.659 900.951 637.65 900.995 637.628L901.676 637.288C901.758 637.247 901.847 637.222 901.938 637.216C902.029 637.209 902.121 637.221 902.207 637.25C902.412 637.319 902.589 637.454 902.709 637.633C902.78 637.739 902.83 637.859 902.854 637.984C902.879 638.109 902.879 638.238 902.853 638.363L902.706 639.103L902.09 639.979C902.032 640.033 901.957 640.067 901.877 640.073C901.798 640.079 901.719 640.059 901.652 640.015L901.642 640.008C901.58 639.967 901.532 639.907 901.505 639.837C901.478 639.767 901.474 639.69 901.493 639.618C901.518 639.521 901.544 639.421 901.567 639.33C901.603 639.187 901.598 639.038 901.552 638.898C901.507 638.759 901.422 638.635 901.309 638.541L897.165 635.129C897.121 635.093 897.067 635.072 897.01 635.07C896.953 635.068 896.897 635.085 896.851 635.118C896.804 635.151 896.77 635.199 896.753 635.253C896.737 635.307 896.739 635.366 896.759 635.419L897.189 636.567C897.431 637.212 897.837 637.784 898.366 638.225L898.485 638.324L897.291 638.175C897.242 638.168 897.192 638.177 897.148 638.198C897.103 638.219 897.065 638.253 897.039 638.295C897.013 638.337 897 638.386 897.001 638.436C897.002 638.485 897.017 638.533 897.044 638.575C897.409 639.125 897.94 639.546 898.559 639.776L898.742 639.845L897.489 639.984C897.436 639.99 897.385 640.013 897.345 640.049C897.305 640.085 897.277 640.133 897.265 640.186C897.254 640.239 897.259 640.294 897.28 640.344C897.302 640.393 897.338 640.435 897.385 640.463L897.838 640.735C898.381 641.061 898.977 641.289 899.598 641.409C899.202 641.681 898.862 642.026 898.596 642.425C898.57 642.464 898.555 642.509 898.552 642.556C898.55 642.603 898.561 642.649 898.583 642.691C898.605 642.732 898.638 642.766 898.678 642.79C898.718 642.815 898.764 642.827 898.811 642.827H898.913C899.415 642.828 899.91 642.715 900.362 642.496V643.086C900.362 643.137 900.377 643.187 900.406 643.229C900.434 643.272 900.475 643.305 900.522 643.325C900.569 643.344 900.621 643.349 900.671 643.339C900.721 643.329 900.767 643.305 900.804 643.269L901.396 642.676L901.731 643.01C901.758 643.037 901.791 643.058 901.827 643.071C901.863 643.083 901.901 643.088 901.939 643.084C901.977 643.081 902.014 643.068 902.047 643.049C902.08 643.029 902.108 643.002 902.129 642.971L902.359 642.625C902.439 642.505 902.555 642.412 902.689 642.359V642.398C902.689 642.604 902.607 642.801 902.463 642.947L902.279 643.13C902.08 643.328 901.923 643.563 901.816 643.821C901.709 644.08 901.654 644.357 901.655 644.637C901.655 644.701 901.678 644.762 901.721 644.809C901.763 644.856 901.821 644.887 901.884 644.894L901.736 645.191L901.413 645.272L900.753 644.534C900.842 644.392 900.883 644.225 900.87 644.058C900.856 643.891 900.789 643.733 900.678 643.607C900.567 643.482 900.418 643.396 900.254 643.362C900.09 643.328 899.919 643.348 899.767 643.419C899.616 643.491 899.491 643.609 899.413 643.757C899.334 643.905 899.306 644.075 899.331 644.24C899.357 644.406 899.436 644.559 899.556 644.676C899.676 644.793 899.831 644.868 899.997 644.889C900.03 644.894 900.064 644.896 900.098 644.896C900.182 644.896 900.266 644.882 900.346 644.854L900.846 645.413L900.817 645.421C900.784 645.429 900.753 645.444 900.725 645.464C900.698 645.484 900.675 645.509 900.658 645.538C900.622 645.597 900.612 645.668 900.628 645.734C900.645 645.801 900.687 645.858 900.746 645.893C900.805 645.929 900.876 645.939 900.942 645.922L901.236 645.849L901.463 646.101C901.486 646.126 901.513 646.146 901.544 646.161C901.575 646.176 901.608 646.184 901.642 646.186C901.676 646.187 901.71 646.183 901.742 646.171C901.774 646.16 901.803 646.142 901.828 646.12C901.854 646.097 901.874 646.069 901.889 646.039C901.903 646.008 901.912 645.975 901.913 645.941C901.915 645.907 901.91 645.873 901.899 645.841C901.888 645.809 901.87 645.78 901.847 645.754L901.804 645.707L901.976 645.664C902.013 645.655 902.046 645.638 902.076 645.615C902.105 645.591 902.128 645.562 902.145 645.529L902.461 644.896H902.689C902.737 644.896 902.784 644.882 902.825 644.857C902.866 644.832 902.899 644.796 902.921 644.753C903.028 644.536 903.188 644.349 903.386 644.209L903.46 644.319L902.85 645.387C902.575 645.867 902.431 646.411 902.431 646.964C902.431 647.033 902.458 647.099 902.506 647.147C902.555 647.196 902.621 647.223 902.689 647.223C902.758 647.223 902.824 647.196 902.872 647.147C902.921 647.099 902.948 647.033 902.948 646.964C902.948 646.501 903.069 646.046 903.299 645.643L903.652 645.025L903.621 645.103C903.342 645.796 903.29 646.561 903.473 647.286C903.481 647.319 903.495 647.35 903.516 647.377C903.536 647.405 903.561 647.428 903.59 647.445C903.62 647.463 903.652 647.475 903.686 647.48C903.719 647.485 903.754 647.483 903.787 647.475C903.82 647.467 903.851 647.452 903.878 647.432C903.905 647.411 903.928 647.386 903.946 647.356C903.963 647.327 903.975 647.295 903.98 647.261C903.985 647.227 903.983 647.193 903.974 647.16C903.818 646.541 903.863 645.887 904.101 645.295L904.104 645.286L904.241 645.491V647.999C904.241 648.067 904.268 648.133 904.316 648.181C904.365 648.23 904.431 648.257 904.499 648.257C904.568 648.257 904.634 648.23 904.682 648.181C904.731 648.133 904.758 648.067 904.758 647.999V645.491L904.894 645.286L904.897 645.295C905.136 645.887 905.18 646.54 905.024 647.16C905.016 647.193 905.014 647.227 905.019 647.261C905.024 647.295 905.035 647.327 905.053 647.356C905.07 647.386 905.093 647.411 905.12 647.431C905.148 647.452 905.179 647.466 905.212 647.475C905.245 647.483 905.279 647.485 905.313 647.48C905.347 647.474 905.379 647.463 905.408 647.445C905.437 647.428 905.463 647.404 905.483 647.377C905.503 647.35 905.518 647.318 905.526 647.285C905.708 646.56 905.657 645.796 905.378 645.103L905.347 645.025L905.7 645.643C905.93 646.046 906.051 646.501 906.051 646.964C906.051 647.033 906.078 647.099 906.126 647.147C906.175 647.196 906.241 647.223 906.309 647.223C906.378 647.223 906.444 647.196 906.492 647.147C906.541 647.099 906.568 647.033 906.568 646.964C906.568 646.411 906.423 645.867 906.149 645.387L905.539 644.319L905.613 644.209C905.81 644.349 905.97 644.536 906.078 644.753C906.099 644.796 906.132 644.832 906.173 644.857C906.214 644.882 906.261 644.896 906.309 644.896H906.537L906.854 645.528C906.87 645.562 906.894 645.591 906.923 645.614C906.952 645.638 906.986 645.655 907.022 645.664L907.691 645.831C907.762 645.992 907.872 646.131 908.012 646.237C908.151 646.343 908.316 646.411 908.489 646.436C908.662 646.461 908.839 646.442 909.003 646.38C909.167 646.318 909.312 646.215 909.426 646.082C909.539 645.948 909.616 645.788 909.651 645.616C909.685 645.444 909.675 645.267 909.622 645.1C909.569 644.933 909.475 644.782 909.348 644.662C909.22 644.541 909.065 644.455 908.895 644.411V644.12C908.895 644.051 908.868 643.986 908.819 643.937C908.771 643.889 908.705 643.861 908.636 643.861C908.568 643.861 908.502 643.889 908.454 643.937C908.405 643.986 908.378 644.051 908.378 644.12V644.411C908.178 644.463 907.999 644.573 907.862 644.728C907.726 644.882 907.638 645.074 907.611 645.278L907.263 645.191L907.114 644.894C907.178 644.887 907.236 644.856 907.278 644.809C907.32 644.762 907.344 644.701 907.344 644.637C907.344 644.357 907.29 644.08 907.183 643.821C907.076 643.563 906.918 643.328 906.72 643.13L906.536 642.947C906.391 642.801 906.31 642.604 906.309 642.398V642.359C906.444 642.412 906.559 642.505 906.64 642.625L906.87 642.971C906.891 643.002 906.919 643.029 906.952 643.049C906.985 643.068 907.022 643.081 907.06 643.084C907.098 643.088 907.136 643.083 907.172 643.071C907.208 643.058 907.241 643.037 907.268 643.01L907.602 642.676L908.195 643.269C908.231 643.305 908.277 643.329 908.327 643.339C908.378 643.349 908.43 643.344 908.477 643.324C908.524 643.305 908.564 643.272 908.593 643.229C908.621 643.187 908.636 643.137 908.636 643.086V642.496C909.088 642.714 909.584 642.828 910.086 642.827H910.188C910.235 642.827 910.281 642.814 910.321 642.79C910.361 642.766 910.394 642.732 910.416 642.691C910.438 642.649 910.448 642.603 910.446 642.556C910.444 642.509 910.429 642.464 910.403 642.425C910.136 642.026 909.796 641.681 909.4 641.409C910.022 641.289 910.618 641.061 911.16 640.735L911.614 640.463C911.66 640.435 911.697 640.394 911.718 640.344C911.739 640.294 911.745 640.239 911.733 640.186C911.722 640.133 911.694 640.086 911.654 640.049C911.614 640.013 911.563 639.99 911.509 639.984L910.257 639.845L910.44 639.777C911.059 639.546 911.589 639.125 911.954 638.575C911.982 638.534 911.997 638.485 911.998 638.436C911.999 638.386 911.985 638.338 911.959 638.295C911.933 638.253 911.896 638.219 911.851 638.198C911.806 638.177 911.756 638.169 911.707 638.175L910.514 638.324L910.632 638.225C911.162 637.784 911.567 637.212 911.809 636.567V636.567ZM900.064 644.376C899.999 644.368 899.94 644.335 899.898 644.284C899.857 644.233 899.836 644.169 899.84 644.103C899.844 644.038 899.873 643.976 899.921 643.932C899.969 643.887 900.032 643.862 900.097 643.861C900.151 643.861 900.203 643.878 900.247 643.909C900.29 643.939 900.323 643.983 900.341 644.033C900.359 644.084 900.361 644.138 900.346 644.19C900.332 644.241 900.302 644.287 900.26 644.32C900.255 644.324 900.25 644.328 900.245 644.331C900.193 644.369 900.128 644.385 900.064 644.376V644.376ZM908.636 645.93C908.546 645.93 908.457 645.906 908.378 645.861C908.3 645.815 908.235 645.75 908.189 645.671H909.084C909.038 645.75 908.973 645.815 908.895 645.861C908.816 645.906 908.727 645.93 908.636 645.93ZM909.084 645.154H908.895V644.966C908.973 645.011 909.038 645.076 909.084 645.154V645.154ZM908.378 644.966V645.154H908.189C908.235 645.076 908.3 645.011 908.378 644.966V644.966ZM903.206 639.466H905.792V642.454C905.792 642.509 905.775 642.562 905.743 642.606C905.712 642.65 905.667 642.683 905.615 642.7L904.499 643.072L903.383 642.7C903.332 642.683 903.287 642.65 903.255 642.606C903.223 642.562 903.206 642.509 903.206 642.454V639.466ZM907.554 636.825C907.412 636.754 907.257 636.711 907.098 636.7C906.939 636.688 906.779 636.709 906.628 636.76C906.314 636.865 906.044 637.071 905.86 637.347C905.751 637.509 905.675 637.692 905.637 637.883C905.599 638.075 905.6 638.273 905.639 638.465L905.735 638.949H904.797L904.929 638.027C904.995 637.566 905.225 637.143 905.578 636.837C905.931 636.531 906.382 636.363 906.848 636.363H907.147C907.275 636.363 907.399 636.406 907.5 636.484C907.6 636.562 907.672 636.672 907.703 636.796L907.732 636.914L907.554 636.825ZM906.609 634.984L906.953 634.868C907.039 634.842 907.131 634.842 907.216 634.868L907.563 634.985L907.385 635.872C907.307 635.855 907.227 635.846 907.147 635.846H906.848C906.825 635.846 906.803 635.846 906.78 635.847L906.609 634.984ZM903.755 634.095L904.499 633.797L905.243 634.095C905.305 634.119 905.354 634.166 905.382 634.226C905.41 634.286 905.413 634.354 905.393 634.416L905.089 635.329H903.91L903.606 634.417C903.585 634.354 903.589 634.286 903.617 634.226C903.644 634.166 903.694 634.119 903.755 634.095V634.095ZM903.862 635.846H905.137L905.434 636.292C904.988 636.608 904.659 637.063 904.499 637.586C904.34 637.063 904.011 636.608 903.564 636.292L903.862 635.846ZM901.782 634.868C901.868 634.841 901.959 634.841 902.045 634.868L902.392 634.985L902.219 635.847C902.196 635.846 902.173 635.846 902.15 635.846H901.851C901.771 635.846 901.692 635.855 901.614 635.872L901.437 634.984L901.782 634.868ZM902.37 636.76C902.219 636.709 902.06 636.688 901.901 636.7C901.742 636.711 901.587 636.754 901.444 636.825L901.267 636.914L901.296 636.796C901.327 636.672 901.399 636.563 901.499 636.484C901.6 636.406 901.724 636.363 901.851 636.363H902.15C902.617 636.363 903.068 636.531 903.421 636.837C903.773 637.143 904.004 637.565 904.07 638.027L904.201 638.949H903.263L903.36 638.465C903.399 638.273 903.399 638.076 903.361 637.884C903.323 637.692 903.248 637.509 903.139 637.347C902.955 637.071 902.684 636.865 902.37 636.76H902.37ZM901.929 642.338L901.873 642.421L901.579 642.127C901.531 642.079 901.465 642.051 901.396 642.051C901.328 642.051 901.262 642.079 901.214 642.127L900.879 642.461V642.051C900.879 642.005 900.867 641.959 900.843 641.919C900.818 641.878 900.784 641.846 900.743 641.823C900.701 641.801 900.655 641.791 900.608 641.793C900.561 641.795 900.516 641.81 900.477 641.836C900.146 642.058 899.771 642.206 899.378 642.272C899.637 642 899.942 641.775 900.277 641.607L900.478 641.507C900.526 641.483 900.566 641.443 900.591 641.395C900.617 641.346 900.626 641.291 900.618 641.237C900.61 641.183 900.585 641.133 900.546 641.094C900.508 641.055 900.458 641.03 900.404 641.021L899.819 640.923C899.294 640.836 898.787 640.664 898.318 640.413L899.874 640.24C899.931 640.234 899.985 640.208 900.027 640.167C900.068 640.126 900.094 640.073 900.102 640.015C900.109 639.957 900.096 639.899 900.066 639.849C900.036 639.799 899.99 639.761 899.936 639.741L898.74 639.292C898.425 639.175 898.136 638.997 897.887 638.77L899.296 638.946C899.351 638.953 899.407 638.942 899.456 638.914C899.505 638.887 899.543 638.844 899.565 638.793C899.587 638.742 899.592 638.684 899.579 638.63C899.567 638.576 899.536 638.527 899.493 638.491L898.697 637.828C898.237 637.444 897.884 636.947 897.673 636.386L897.582 636.142L900.98 638.94C901.017 638.971 901.045 639.012 901.061 639.059C901.076 639.105 901.078 639.154 901.066 639.202C901.043 639.292 901.017 639.391 900.992 639.487C900.946 639.663 900.956 639.85 901.021 640.021C901.087 640.191 901.203 640.337 901.355 640.438L901.365 640.445C901.535 640.558 901.738 640.608 901.941 640.586C902.143 640.565 902.332 640.473 902.473 640.327C902.483 640.317 902.491 640.307 902.499 640.295L902.689 640.025V640.629L902.504 640.768C902.329 640.899 902.117 640.973 901.898 640.979C901.679 640.985 901.464 640.923 901.281 640.802C901.253 640.783 901.221 640.77 901.188 640.764C901.155 640.757 901.12 640.757 901.087 640.764C901.054 640.77 901.022 640.783 900.994 640.802C900.966 640.821 900.942 640.845 900.923 640.874C900.904 640.902 900.891 640.934 900.884 640.967C900.878 641 900.878 641.035 900.884 641.068C900.891 641.101 900.904 641.133 900.923 641.161C900.942 641.189 900.966 641.213 900.994 641.232C901.244 641.399 901.537 641.49 901.837 641.496C902.137 641.502 902.433 641.422 902.689 641.266V641.821C902.378 641.888 902.105 642.073 901.929 642.338L901.929 642.338ZM906.354 643.496C906.594 643.735 906.752 644.044 906.806 644.379H906.462C906.268 644.057 905.986 643.797 905.649 643.63C905.593 643.602 905.528 643.595 905.467 643.612C905.406 643.628 905.353 643.666 905.318 643.718L904.499 644.947L903.68 643.718C903.645 643.665 903.592 643.628 903.531 643.611C903.471 643.595 903.406 643.602 903.349 643.63C903.013 643.797 902.731 644.057 902.537 644.379H902.193C902.246 644.044 902.404 643.735 902.645 643.496L902.828 643.313C902.897 643.243 902.958 643.166 903.01 643.083C903.074 643.129 903.145 643.165 903.22 643.19L904.418 643.59C904.471 643.607 904.528 643.607 904.581 643.59L905.779 643.19C905.854 643.165 905.925 643.129 905.989 643.083C906.04 643.166 906.101 643.243 906.17 643.313L906.354 643.496ZM910.301 637.828L909.505 638.491C909.462 638.527 909.432 638.576 909.419 638.63C909.406 638.684 909.411 638.742 909.434 638.793C909.456 638.844 909.494 638.887 909.543 638.914C909.591 638.942 909.647 638.953 909.703 638.946L911.111 638.77C910.863 638.997 910.574 639.175 910.258 639.292L909.063 639.741C909.008 639.761 908.962 639.799 908.932 639.849C908.902 639.899 908.89 639.957 908.897 640.015C908.904 640.072 908.931 640.126 908.972 640.167C909.013 640.208 909.067 640.233 909.125 640.24L910.681 640.413C910.212 640.664 909.705 640.836 909.18 640.923L908.594 641.021C908.54 641.03 908.49 641.055 908.452 641.094C908.414 641.133 908.389 641.183 908.381 641.237C908.373 641.291 908.382 641.346 908.407 641.395C908.432 641.443 908.472 641.482 908.521 641.507L908.721 641.607C909.057 641.775 909.361 642 909.62 642.271C909.227 642.206 908.852 642.057 908.521 641.836C908.482 641.81 908.437 641.795 908.39 641.793C908.343 641.791 908.297 641.801 908.256 641.823C908.214 641.846 908.18 641.878 908.156 641.919C908.132 641.959 908.119 642.005 908.119 642.051V642.461L907.785 642.127C907.761 642.103 907.732 642.084 907.701 642.071C907.67 642.058 907.636 642.051 907.602 642.051C907.568 642.051 907.535 642.058 907.503 642.071C907.472 642.084 907.443 642.103 907.419 642.127L907.125 642.421L907.07 642.338C906.893 642.073 906.621 641.888 906.309 641.821V641.266C906.566 641.422 906.861 641.502 907.162 641.496C907.462 641.49 907.754 641.398 908.004 641.232C908.061 641.194 908.101 641.135 908.114 641.068C908.128 641 908.114 640.931 908.076 640.873C908.038 640.816 907.979 640.777 907.911 640.763C907.844 640.75 907.774 640.764 907.717 640.802C907.535 640.923 907.319 640.985 907.1 640.979C906.881 640.973 906.67 640.899 906.494 640.768L906.309 640.629V640.025L906.5 640.296C906.507 640.307 906.516 640.317 906.525 640.327C906.667 640.473 906.856 640.565 907.058 640.587C907.26 640.608 907.464 640.558 907.633 640.445L907.644 640.438C907.796 640.337 907.912 640.191 907.977 640.021C908.042 639.85 908.053 639.663 908.007 639.487C907.982 639.391 907.956 639.292 907.933 639.202C907.921 639.154 907.923 639.105 907.938 639.059C907.953 639.012 907.981 638.971 908.019 638.94L911.417 636.142L911.325 636.386C911.114 636.947 910.762 637.444 910.301 637.828V637.828Z" fill="#FAFF00"/>
<path d="M903.799 641.976C903.823 642 903.852 642.019 903.883 642.032C903.915 642.045 903.948 642.051 903.982 642.051C904.016 642.051 904.05 642.045 904.081 642.032C904.113 642.019 904.141 642 904.165 641.976C904.255 641.886 904.322 641.774 904.358 641.652C904.394 641.53 904.399 641.4 904.373 641.276H904.64C904.717 641.382 904.758 641.51 904.758 641.641V641.793C904.758 641.861 904.785 641.927 904.834 641.976C904.882 642.024 904.948 642.051 905.016 642.051C905.085 642.051 905.151 642.024 905.199 641.976C905.248 641.927 905.275 641.861 905.275 641.793V641.641C905.276 641.385 905.189 641.136 905.03 640.935C905.047 640.884 905.08 640.839 905.124 640.807C905.168 640.776 905.221 640.759 905.275 640.759C905.344 640.759 905.409 640.731 905.458 640.683C905.506 640.634 905.534 640.569 905.534 640.5C905.534 640.431 905.506 640.366 905.458 640.317C905.409 640.269 905.344 640.241 905.275 640.241C905.115 640.242 904.958 640.291 904.827 640.384C904.696 640.477 904.597 640.607 904.544 640.759H904.241V640.241C904.241 640.173 904.214 640.107 904.165 640.059C904.117 640.01 904.051 639.983 903.982 639.983C903.914 639.983 903.848 640.01 903.799 640.059C903.751 640.107 903.724 640.173 903.724 640.241V641.017C903.724 641.057 903.733 641.096 903.751 641.132C903.751 641.132 903.751 641.132 903.751 641.133L903.846 641.323C903.869 641.37 903.877 641.422 903.869 641.474C903.861 641.526 903.836 641.573 903.799 641.61C903.751 641.659 903.724 641.724 903.724 641.793C903.724 641.861 903.751 641.927 903.799 641.976V641.976Z" fill="#FFED8D"/>
</g>
<path d="M918 640.5C918 647.956 911.956 654 904.5 654C897.044 654 891 647.956 891 640.5C891 633.044 897.044 627 904.5 627C911.956 627 918 633.044 918 640.5ZM891.79 640.5C891.79 647.52 897.48 653.21 904.5 653.21C911.52 653.21 917.21 647.52 917.21 640.5C917.21 633.48 911.52 627.79 904.5 627.79C897.48 627.79 891.79 633.48 891.79 640.5Z" fill="#FFF72C"/>
</g>
<g filter="url(#filter9_d)">
<path d="M1178.07 509.096V513.457C1178.07 513.881 1178.33 514.258 1178.73 514.4L1188.2 517.76C1188.42 517.838 1188.66 517.837 1188.88 517.756L1198.02 514.404C1198.42 514.26 1198.68 513.885 1198.68 513.465V509.096" stroke="#615EE9"/>
<path d="M1188.54 512.812V517.88" stroke="#615EE9"/>
<path d="M1188.7 502.591L1201.25 507.067C1201.69 507.225 1201.69 507.851 1201.25 508.009L1188.7 512.485C1188.59 512.524 1188.47 512.524 1188.36 512.485L1175.81 508.009C1175.37 507.851 1175.37 507.225 1175.81 507.067L1188.36 502.591C1188.47 502.552 1188.59 502.552 1188.7 502.591Z" stroke="#615EE9"/>
<path d="M1188.53 507.553L1203.07 507.744V512.474" stroke="#615EE9"/>
<circle cx="1203.07" cy="513.15" r="1.01364" fill="#615EE9"/>
</g>
<path d="M1517.58 12.62V11H1511.05V2.48H1511.67V10.448H1516.53V2.48H1517.13V10.448H1518.13V12.62H1517.58ZM1522.51 11.12C1521.92 11.12 1521.4 10.972 1520.92 10.676C1520.46 10.38 1520.09 9.984 1519.82 9.488C1519.56 8.992 1519.42 8.448 1519.42 7.856C1519.42 7.272 1519.56 6.74 1519.82 6.26C1520.08 5.772 1520.45 5.384 1520.91 5.096C1521.38 4.8 1521.9 4.652 1522.47 4.652C1523.06 4.652 1523.59 4.8 1524.04 5.096C1524.51 5.384 1524.87 5.772 1525.14 6.26C1525.4 6.748 1525.53 7.28 1525.53 7.856C1525.53 7.952 1525.53 8.04 1525.52 8.12H1520.05C1520.08 8.6 1520.21 9.032 1520.44 9.416C1520.68 9.792 1520.97 10.092 1521.33 10.316C1521.7 10.532 1522.1 10.64 1522.53 10.64C1522.96 10.64 1523.37 10.528 1523.76 10.304C1524.14 10.08 1524.41 9.792 1524.56 9.44L1525.09 9.584C1524.97 9.88 1524.78 10.144 1524.51 10.376C1524.26 10.608 1523.95 10.792 1523.6 10.928C1523.26 11.056 1522.89 11.12 1522.51 11.12ZM1520.02 7.652H1524.96C1524.92 7.164 1524.79 6.732 1524.56 6.356C1524.34 5.972 1524.04 5.676 1523.68 5.468C1523.32 5.252 1522.92 5.144 1522.48 5.144C1522.04 5.144 1521.64 5.252 1521.28 5.468C1520.92 5.684 1520.63 5.984 1520.41 6.368C1520.18 6.744 1520.06 7.172 1520.02 7.652ZM1526.46 11.024V10.472C1526.67 10.472 1526.87 10.412 1527.04 10.292C1527.22 10.164 1527.38 9.952 1527.51 9.656C1527.65 9.36 1527.76 8.952 1527.84 8.432C1527.92 7.904 1527.98 7.24 1528 6.44L1528.06 4.76H1531.95V11H1531.35V5.3H1528.6L1528.58 6.476C1528.54 7.652 1528.44 8.572 1528.27 9.236C1528.1 9.892 1527.86 10.356 1527.56 10.628C1527.26 10.892 1526.89 11.024 1526.46 11.024ZM1534.06 11V4.76H1534.66V7.028H1536.33C1537.02 7.028 1537.54 7.208 1537.89 7.568C1538.23 7.928 1538.4 8.396 1538.4 8.972C1538.4 9.348 1538.33 9.688 1538.18 9.992C1538.02 10.296 1537.8 10.54 1537.49 10.724C1537.2 10.908 1536.82 11 1536.38 11H1534.06ZM1534.66 10.508H1536.3C1536.66 10.508 1536.95 10.436 1537.17 10.292C1537.39 10.148 1537.55 9.96 1537.65 9.728C1537.75 9.496 1537.8 9.248 1537.8 8.984C1537.8 8.728 1537.76 8.488 1537.66 8.264C1537.57 8.04 1537.42 7.86 1537.19 7.724C1536.98 7.588 1536.67 7.52 1536.28 7.52H1534.66V10.508ZM1540.23 8.384V2.396H1540.85V8.384H1540.23ZM1540.23 11V9.776H1540.85V11H1540.23Z" fill="black"/>
<defs>
<filter id="filter0_d" x="0.982422" y="67.3349" width="1534.99" height="851.326" filterUnits="userSpaceOnUse" color-interpolation-filters="sRGB">
<feFlood flood-opacity="0" result="BackgroundImageFix"/>
<feColorMatrix in="SourceAlpha" type="matrix" values="0 0 0 0 0 0 0 0 0 0 0 0 0 0 0 0 0 0 127 0"/>
<feOffset dx="4" dy="4"/>
<feGaussianBlur stdDeviation="1.5"/>
<feColorMatrix type="matrix" values="0 0 0 0 0 0 0 0 0 0 0 0 0 0 0 0 0 0 0.1 0"/>
<feBlend mode="normal" in2="BackgroundImageFix" result="effect1_dropShadow"/>
<feBlend mode="normal" in="SourceGraphic" in2="effect1_dropShadow" result="shape"/>
</filter>
<filter id="filter1_d" x="1537" y="25" width="15" height="15" filterUnits="userSpaceOnUse" color-interpolation-filters="sRGB">
<feFlood flood-opacity="0" result="BackgroundImageFix"/>
<feColorMatrix in="SourceAlpha" type="matrix" values="0 0 0 0 0 0 0 0 0 0 0 0 0 0 0 0 0 0 127 0"/>
<feOffset dx="4" dy="4"/>
<feGaussianBlur stdDeviation="1.5"/>
<feColorMatrix type="matrix" values="0 0 0 0 0 0 0 0 0 0 0 0 0 0 0 0 0 0 0.1 0"/>
<feBlend mode="normal" in2="BackgroundImageFix" result="effect1_dropShadow"/>
<feBlend mode="normal" in="SourceGraphic" in2="effect1_dropShadow" result="shape"/>
</filter>
<filter id="filter2_d" x="1515.19" y="24.2522" width="46.877" height="55.9409" filterUnits="userSpaceOnUse" color-interpolation-filters="sRGB">
<feFlood flood-opacity="0" result="BackgroundImageFix"/>
<feColorMatrix in="SourceAlpha" type="matrix" values="0 0 0 0 0 0 0 0 0 0 0 0 0 0 0 0 0 0 127 0"/>
<feOffset dx="4" dy="4"/>
<feGaussianBlur stdDeviation="1.5"/>
<feColorMatrix type="matrix" values="0 0 0 0 0 0 0 0 0 0 0 0 0 0 0 0 0 0 0.1 0"/>
<feBlend mode="normal" in2="BackgroundImageFix" result="effect1_dropShadow"/>
<feBlend mode="normal" in="SourceGraphic" in2="effect1_dropShadow" result="shape"/>
</filter>
<filter id="filter3_d" x="1540" y="72" width="8.00004" height="847" filterUnits="userSpaceOnUse" color-interpolation-filters="sRGB">
<feFlood flood-opacity="0" result="BackgroundImageFix"/>
<feColorMatrix in="SourceAlpha" type="matrix" values="0 0 0 0 0 0 0 0 0 0 0 0 0 0 0 0 0 0 127 0"/>
<feOffset dx="4" dy="4"/>
<feGaussianBlur stdDeviation="1.5"/>
<feColorMatrix type="matrix" values="0 0 0 0 0 0 0 0 0 0 0 0 0 0 0 0 0 0 0.1 0"/>
<feBlend mode="normal" in2="BackgroundImageFix" result="effect1_dropShadow"/>
<feBlend mode="normal" in="SourceGraphic" in2="effect1_dropShadow" result="shape"/>
</filter>
<filter id="filter4_d" x="1189" y="530" width="8.00002" height="389" filterUnits="userSpaceOnUse" color-interpolation-filters="sRGB">
<feFlood flood-opacity="0" result="BackgroundImageFix"/>
<feColorMatrix in="SourceAlpha" type="matrix" values="0 0 0 0 0 0 0 0 0 0 0 0 0 0 0 0 0 0 127 0"/>
<feOffset dx="4" dy="4"/>
<feGaussianBlur stdDeviation="1.5"/>
<feColorMatrix type="matrix" values="0 0 0 0 0 0 0 0 0 0 0 0 0 0 0 0 0 0 0.1 0"/>
<feBlend mode="normal" in2="BackgroundImageFix" result="effect1_dropShadow"/>
<feBlend mode="normal" in="SourceGraphic" in2="effect1_dropShadow" result="shape"/>
</filter>
<filter id="filter5_d" x="904" y="663" width="8" height="256" filterUnits="userSpaceOnUse" color-interpolation-filters="sRGB">
<feFlood flood-opacity="0" result="BackgroundImageFix"/>
<feColorMatrix in="SourceAlpha" type="matrix" values="0 0 0 0 0 0 0 0 0 0 0 0 0 0 0 0 0 0 127 0"/>
<feOffset dx="4" dy="4"/>
<feGaussianBlur stdDeviation="1.5"/>
<feColorMatrix type="matrix" values="0 0 0 0 0 0 0 0 0 0 0 0 0 0 0 0 0 0 0.1 0"/>
<feBlend mode="normal" in2="BackgroundImageFix" result="effect1_dropShadow"/>
<feBlend mode="normal" in="SourceGraphic" in2="effect1_dropShadow" result="shape"/>
</filter>
<filter id="filter6_d" x="469" y="804" width="8" height="115" filterUnits="userSpaceOnUse" color-interpolation-filters="sRGB">
<feFlood flood-opacity="0" result="BackgroundImageFix"/>
<feColorMatrix in="SourceAlpha" type="matrix" values="0 0 0 0 0 0 0 0 0 0 0 0 0 0 0 0 0 0 127 0"/>
<feOffset dx="4" dy="4"/>
<feGaussianBlur stdDeviation="1.5"/>
<feColorMatrix type="matrix" values="0 0 0 0 0 0 0 0 0 0 0 0 0 0 0 0 0 0 0.1 0"/>
<feBlend mode="normal" in2="BackgroundImageFix" result="effect1_dropShadow"/>
<feBlend mode="normal" in="SourceGraphic" in2="effect1_dropShadow" result="shape"/>
</filter>
<filter id="filter7_d" x="454.5" y="762" width="35.0001" height="44.2221" filterUnits="userSpaceOnUse" color-interpolation-filters="sRGB">
<feFlood flood-opacity="0" result="BackgroundImageFix"/>
<feColorMatrix in="SourceAlpha" type="matrix" values="0 0 0 0 0 0 0 0 0 0 0 0 0 0 0 0 0 0 127 0"/>
<feOffset dx="3" dy="6"/>
<feGaussianBlur stdDeviation="3.5"/>
<feColorMatrix type="matrix" values="0 0 0 0 0 0 0 0 0 0 0 0 0 0 0 0 0 0 0.15 0"/>
<feBlend mode="normal" in2="BackgroundImageFix" result="effect1_dropShadow"/>
<feBlend mode="normal" in="SourceGraphic" in2="effect1_dropShadow" result="shape"/>
</filter>
<filter id="filter8_d" x="887" y="626" width="41" height="41" filterUnits="userSpaceOnUse" color-interpolation-filters="sRGB">
<feFlood flood-opacity="0" result="BackgroundImageFix"/>
<feColorMatrix in="SourceAlpha" type="matrix" values="0 0 0 0 0 0 0 0 0 0 0 0 0 0 0 0 0 0 127 0"/>
<feOffset dx="3" dy="6"/>
<feGaussianBlur stdDeviation="3.5"/>
<feColorMatrix type="matrix" values="0 0 0 0 0 0 0 0 0 0 0 0 0 0 0 0 0 0 0.15 0"/>
<feBlend mode="normal" in2="BackgroundImageFix" result="effect1_dropShadow"/>
<feBlend mode="normal" in="SourceGraphic" in2="effect1_dropShadow" result="shape"/>
</filter>
<filter id="filter9_d" x="1170.98" y="501.062" width="43.1093" height="30.2557" filterUnits="userSpaceOnUse" color-interpolation-filters="sRGB">
<feFlood flood-opacity="0" result="BackgroundImageFix"/>
<feColorMatrix in="SourceAlpha" type="matrix" values="0 0 0 0 0 0 0 0 0 0 0 0 0 0 0 0 0 0 127 0"/>
<feOffset dx="3" dy="6"/>
<feGaussianBlur stdDeviation="3.5"/>
<feColorMatrix type="matrix" values="0 0 0 0 0 0 0 0 0 0 0 0 0 0 0 0 0 0 0.15 0"/>
<feBlend mode="normal" in2="BackgroundImageFix" result="effect1_dropShadow"/>
<feBlend mode="normal" in="SourceGraphic" in2="effect1_dropShadow" result="shape"/>
</filter>
<clipPath id="clip0">
<rect width="16.5484" height="16.5484" fill="white" transform="translate(896.226 632.226)"/>
</clipPath>
</defs>
</svg>
