<svg width="815" height="916" viewBox="0 0 815 916" fill="none" xmlns="http://www.w3.org/2000/svg">
<g filter="url(#filter0_d)">
<path d="M338.192 64.8152H274.136V50.257L308.493 52.0039L317.811 54.3333V49.0923L328.293 47.9276L326.546 40.9397L332.951 39.1927L328.293 32.2048H322.469L319.558 22.3052V7.74699L322.469 6L334.116 18.8112L345.763 22.3052H361.485L369.056 16.4819L373.132 18.8112L376.626 35.1164L381.285 36.2811L384.196 50.257L395.26 57.2449H406.907L412.148 52.0039H426.706L432.529 56.0802L446.505 57.2449L443.011 54.3333V47.9276L438.353 46.1807L437.188 36.2811H446.505L456.405 49.0923V53.7509L450.582 54.3333L449.417 57.2449L458.152 59.5742L459.317 76.4617L452.911 85.1967H459.317L465.14 88.1083L470.381 79.3734L477.369 77.6264V72.3854L487.851 70.6385L498.915 64.8152L497.75 59.5742L491.927 56.0802L487.851 47.9276V39.1927L490.18 35.1164L506.485 50.257L513.473 49.0923L519.296 53.7509L518.132 58.4096H511.144L513.473 65.9798H504.738L494.839 68.8915L500.08 76.4617L496.586 77.6264V81.7027H501.244V88.1083L496.586 90.4376V102.084L493.674 103.831L500.08 109.654L497.75 116.642L506.485 120.719L507.65 124.213L513.473 127.124L508.814 133.53L487.851 122.466L475.039 114.313L467.469 107.325V102.084L459.317 90.4376L451.164 88.1083L444.758 93.9316V102.084L434.276 120.719L417.389 144.594H413.313L405.16 150.417H395.26L387.69 155.658L373.714 153.911L367.309 157.405L355.662 152.747L338.775 149.253L330.04 152.747L324.216 155.658L313.734 170.799L306.747 187.104V202.827L313.734 217.968L324.216 222.626L330.04 220.879L338.775 230.196L349.839 233.108L348.092 250.578V263.971L353.915 266.883L362.65 274.453L370.803 284.935L378.373 282.024L374.879 290.759L380.12 301.241L387.69 302.987L399.337 310.558L409.819 323.951L426.124 328.61L428.453 336.763L439.517 344.333L445.341 341.421L451.746 346.662L458.152 358.309L485.521 374.614L491.927 375.779L496.003 382.184L532.69 422.365L542.007 426.441L546.666 420.618L554.236 422.365L555.401 428.188L564.136 440.417L572.288 443.911L568.794 446.823L574.618 451.481L579.859 445.658L583.935 448.57L579.859 457.305L583.935 462.545L590.34 459.051L610.722 475.939H615.381L614.216 482.345L659.638 518.449L664.878 516.702L670.702 519.614V525.437L677.107 531.26L680.601 534.754V542.324L696.907 566.2L719.035 591.822L738.834 599.975L746.987 593.569L749.316 601.14L750.481 608.71L763.292 630.256L784.838 653.549H796.485V650.055L802.89 653.549L804.055 661.702L764.457 705.959L728.352 659.372L710.3 672.766L741.746 722.264L764.457 776.42L755.139 783.408V793.89L748.151 795.637V800.296L724.276 802.625L730.099 819.513L737.087 825.336V829.412L734.176 833.489L728.352 829.412L719.035 838.73L711.465 830.577L707.388 833.489H686.425L688.754 856.199L703.312 869.011L699.236 874.834L707.388 882.987L711.465 881.822L714.959 888.228L702.148 895.798L686.425 871.922H681.184V865.517L666.043 849.794V830.577L658.473 827.665L660.22 804.955L656.726 783.408L669.537 778.75L675.36 785.155L691.083 770.597V765.939L678.854 731.581L684.095 730.417L682.931 722.264L687.589 717.023L697.489 713.529L675.36 690.818L664.878 675.095L645.662 690.818L607.81 733.91L588.593 743.228L581.023 740.898V733.91L582.77 731.581V718.77L575.2 717.023V688.489H577.529V683.83L569.959 678.589L584.517 669.272L588.593 672.766L622.369 638.991L576.365 637.826L569.959 622.103H565.3L563.553 607.545H555.401L540.843 601.722L502.991 626.762L464.558 665.196L471.545 678.589L468.634 680.336L464.558 676.26L436.606 680.336L433.694 683.83L418.554 672.766L420.301 666.943L433.694 663.449V659.372H442.429L446.505 663.449L455.823 649.473V637.826L449.999 630.256L429.035 629.091V625.015L401.464 623.029L379.578 614.39L378.373 616.28L371.385 611.622L360.321 630.256H356.827V629.091H353.915V633.168L340.522 645.397H311.405V622.103H315.481V617.445L299.759 612.786L295.1 603.469L282.289 611.622L277.048 603.469L282.289 599.975L277.048 584.834L289.859 577.846L284.618 569.112V563.288L286.947 560.959L273.554 537.083L259.578 546.983L253.755 537.083L243.855 544.654L235.12 531.843L260.743 514.955L251.425 494.574H270.06L275.883 482.927L270.06 457.887H260.743L263.654 441.582L293.935 434.594L291.606 421.782L284.618 421.2L285.783 412.465H292.188V405.477L286.947 400.236L235.12 396.16V391.501H230.462L227.55 379.855L211.827 368.791L215.903 357.726L208.915 351.903H199.598V349.574H183.293L173.976 361.803L164.076 347.827L184.458 336.18L180.381 328.61L193.192 311.722L196.686 308.228L166.988 283.188L161.747 282.024L163.596 276.306L154.381 275.154L152.43 280.277L137.289 288.429L118.654 277.947L108.173 291.341L72.6505 262.807L62.7509 280.277L55.1807 266.883L51.6867 222.044L15 147.506L31.3052 139.353L23.1526 132.365L34.2168 125.96L38.2931 132.365L59.8393 121.301L62.1686 107.907L73.8152 98.0079L70.3212 91.6023L102.932 73.5501H116.325L117.49 76.4617L148.353 78.791L149.518 88.6906H141.948L143.112 103.249L138.454 120.136L133.795 121.301L123.895 156.241V170.799L127.972 185.939L179.799 223.208L182.128 217.968L172.811 209.233L175.14 198.751L186.205 187.104L206.004 202.245H233.373L261.325 178.369L258.996 171.964L264.819 167.887L268.895 171.964L299.759 144.594L313.734 142.847L317.811 150.417L326.546 134.695V118.972L331.204 110.819L338.192 108.49L350.421 88.1083V63.6505L338.192 64.8152Z" fill="white"/>
<path d="M338.192 64.8152H274.136V50.257L308.493 52.0039L317.811 54.3333V49.0923L328.293 47.9276L326.546 40.9397L332.951 39.1927L328.293 32.2048H322.469L319.558 22.3052V7.74699L322.469 6L334.116 18.8112L345.763 22.3052H361.485L369.056 16.4819L373.132 18.8112L376.626 35.1164L381.285 36.2811L384.196 50.257L395.26 57.2449H406.907L412.148 52.0039H426.706L432.529 56.0802L446.505 57.2449L443.011 54.3333V47.9276L438.353 46.1807L437.188 36.2811H446.505L456.405 49.0923V53.7509L450.582 54.3333L449.417 57.2449L458.152 59.5742L459.317 76.4617L452.911 85.1967H459.317L465.14 88.1083L470.381 79.3734L477.369 77.6264V72.3854L487.851 70.6385L498.915 64.8152L497.75 59.5742L491.927 56.0802L487.851 47.9276V39.1927L490.18 35.1164L506.485 50.257L513.473 49.0923L519.296 53.7509L518.132 58.4096H511.144L513.473 65.9798H504.738L494.839 68.8915L500.08 76.4617L496.586 77.6264V81.7027H501.244V88.1083L496.586 90.4376V102.084L493.674 103.831L500.08 109.654L497.75 116.642L506.485 120.719L507.65 124.213L513.473 127.124L508.814 133.53L487.851 122.466L475.039 114.313L467.469 107.325V102.084L459.317 90.4376L451.164 88.1083L444.758 93.9316V102.084L434.276 120.719L417.389 144.594H413.313L405.16 150.417H395.26L387.69 155.658L373.714 153.911L367.309 157.405L355.662 152.747L338.775 149.253L330.04 152.747L324.216 155.658L313.734 170.799L306.747 187.104V202.827L313.734 217.968L324.216 222.626L330.04 220.879L338.775 230.196L349.839 233.108L348.092 250.578V263.971L353.915 266.883L362.65 274.453L370.803 284.935L378.373 282.024L374.879 290.759L380.12 301.241L387.69 302.987L399.337 310.558L409.819 323.951L426.124 328.61L428.453 336.763L439.517 344.333L445.341 341.421L451.746 346.662L458.152 358.309L485.521 374.614L491.927 375.779L496.003 382.184L532.69 422.365L542.007 426.441L546.666 420.618L554.236 422.365L555.401 428.188L564.136 440.417L572.288 443.911L568.794 446.823L574.618 451.481L579.859 445.658L583.935 448.57L579.859 457.305L583.935 462.545L590.34 459.051L610.722 475.939H615.381L614.216 482.345L659.638 518.449L664.878 516.702L670.702 519.614V525.437L677.107 531.26L680.601 534.754V542.324L696.907 566.2L719.035 591.822L738.834 599.975L746.987 593.569L749.316 601.14L750.481 608.71L763.292 630.256L784.838 653.549H796.485V650.055L802.89 653.549L804.055 661.702L764.457 705.959L728.352 659.372L710.3 672.766L741.746 722.264L764.457 776.42L755.139 783.408V793.89L748.151 795.637V800.296L724.276 802.625L730.099 819.513L737.087 825.336V829.412L734.176 833.489L728.352 829.412L719.035 838.73L711.465 830.577L707.388 833.489H686.425L688.754 856.199L703.312 869.011L699.236 874.834L707.388 882.987L711.465 881.822L714.959 888.228L702.148 895.798L686.425 871.922H681.184V865.517L666.043 849.794V830.577L658.473 827.665L660.22 804.955L656.726 783.408L669.537 778.75L675.36 785.155L691.083 770.597V765.939L678.854 731.581L684.095 730.417L682.931 722.264L687.589 717.023L697.489 713.529L675.36 690.818L664.878 675.095L645.662 690.818L607.81 733.91L588.593 743.228L581.023 740.898V733.91L582.77 731.581V718.77L575.2 717.023V688.489H577.529V683.83L569.959 678.589L584.517 669.272L588.593 672.766L622.369 638.991L576.365 637.826L569.959 622.103H565.3L563.553 607.545H555.401L540.843 601.722L502.991 626.762L464.558 665.196L471.545 678.589L468.634 680.336L464.558 676.26L436.606 680.336L433.694 683.83L418.554 672.766L420.301 666.943L433.694 663.449V659.372H442.429L446.505 663.449L455.823 649.473V637.826L449.999 630.256L429.035 629.091V625.015L401.464 623.029L379.578 614.39L378.373 616.28L371.385 611.622L360.321 630.256H356.827V629.091H353.915V633.168L340.522 645.397H311.405V622.103H315.481V617.445L299.759 612.786L295.1 603.469L282.289 611.622L277.048 603.469L282.289 599.975L277.048 584.834L289.859 577.846L284.618 569.112V563.288L286.947 560.959L273.554 537.083L259.578 546.983L253.755 537.083L243.855 544.654L235.12 531.843L260.743 514.955L251.425 494.574H270.06L275.883 482.927L270.06 457.887H260.743L263.654 441.582L293.935 434.594L291.606 421.782L284.618 421.2L285.783 412.465H292.188V405.477L286.947 400.236L235.12 396.16V391.501H230.462L227.55 379.855L211.827 368.791L215.903 357.726L208.915 351.903H199.598V349.574H183.293L173.976 361.803L164.076 347.827L184.458 336.18L180.381 328.61L193.192 311.722L196.686 308.228L166.988 283.188L161.747 282.024L163.596 276.306L154.381 275.154L152.43 280.277L137.289 288.429L118.654 277.947L108.173 291.341L72.6505 262.807L62.7509 280.277L55.1807 266.883L51.6867 222.044L15 147.506L31.3052 139.353L23.1526 132.365L34.2168 125.96L38.2931 132.365L59.8393 121.301L62.1686 107.907L73.8152 98.0079L70.3212 91.6023L102.932 73.5501H116.325L117.49 76.4617L148.353 78.791L149.518 88.6906H141.948L143.112 103.249L138.454 120.136L133.795 121.301L123.895 156.241V170.799L127.972 185.939L179.799 223.208L182.128 217.968L172.811 209.233L175.14 198.751L186.205 187.104L206.004 202.245H233.373L261.325 178.369L258.996 171.964L264.819 167.887L268.895 171.964L299.759 144.594L313.734 142.847L317.811 150.417L326.546 134.695V118.972L331.204 110.819L338.192 108.49L350.421 88.1083V63.6505L338.192 64.8152Z" stroke="#A9ACFF" stroke-opacity="0.6"/>
</g>
<path d="M456.756 595.384L476.914 595.959L493.617 587.896L507.44 578.681L514.351 576.377L541.997 576.953" stroke="black" stroke-opacity="0.05"/>
<path d="M292.609 381.705V422.598L298.368 453.699L305.856 486.528L311.615 496.896M292.609 381.705L309.311 386.313L343.293 404.743L334.077 430.085L337.533 434.693L345.596 435.845L389.369 434.693L400.888 441.604M292.609 381.705L281.666 375.946L263.811 360.971L256.9 362.699L251.716 360.971L247.109 353.483L242.501 350.604V345.42L221.767 324.11L234.438 318.926L214.855 297.04L202.184 290.705L187.785 288.401L172.235 277.458L164.171 275.154L152.076 273.426L145.165 267.667L133.646 264.787L129.614 260.755L111.184 261.907L87.5697 252.692L81.8102 253.268L73.1709 261.907" stroke="black" stroke-opacity="0.05"/>
<path d="M406.072 438.148L316.224 498.048" stroke="black" stroke-opacity="0.05"/>
<path d="M295.489 603.447L348.477 572.921" stroke="black" stroke-opacity="0.05"/>
<path d="M457.908 627.061L468.851 628.213H486.705L497.648 624.757L504.56 621.877L526.446 608.63L539.693 599.415L543.149 561.402L553.516 548.155M553.516 548.155L554.668 540.092M553.516 548.155L566.763 561.402L580.01 582.713L596.136 593.656L613.991 616.694L620.326 620.149L628.966 621.877L645.092 631.669L656.611 636.276M554.668 540.092L585.193 541.244L594.408 545.276L604.776 552.187L612.263 563.13L615.143 575.801V580.985L647.972 613.238L659.491 631.669M554.668 540.092L539.117 537.788L535.085 536.06L508.591 496.896M554.668 540.092V522.238L551.788 513.598L540.845 485.953L533.357 473.858L520.686 463.49V448.516M659.491 631.669L656.611 636.276M659.491 631.669L665.251 625.333L692.896 609.782L698.656 598.263L707.295 590.2L682.529 570.618L662.947 546.428L643.364 532.605L627.814 529.149L584.617 486.528L580.01 482.497L564.796 462.338M656.611 636.276L679.649 647.795L704.991 667.378L717.662 695.599L738.972 722.669L745.308 741.099L762.587 777.384M508.591 496.896L487.281 510.143M508.591 496.896L564.796 462.338M487.281 510.143L462.515 472.13M487.281 510.143L457.496 528.573M462.515 472.13L445.237 446.212M462.515 472.13L483.25 458.883L475.186 446.788M462.515 472.13L440.053 487.104M445.237 446.212L459.989 436.65M445.237 446.212L425.654 458.883M445.237 446.212L419.895 403.015L414.711 397.256L355.388 370.762L331.198 369.034M507.44 405.895L500.331 410.503M459.989 436.65L471.155 443.332M459.989 436.65L489.009 417.841M440.053 487.104L424.502 462.338M440.053 487.104L398.585 514.174L391.673 531.453L381.306 547.003L367.483 560.826L354.236 570.042M440.053 487.104L445.813 496.896L449.844 508.991L451.572 518.206L457.496 528.573M424.502 462.338L422.083 458.307M424.502 462.338L425.654 458.883M424.502 462.338L421.623 464.066L419.319 460.035L422.083 458.307M520.686 443.332L504.56 443.544M520.686 443.332V448.516M520.686 443.332H530.478L532.206 441.604M520.686 443.332V441.604L500.331 410.503M476.914 443.908L504.56 443.544M455.028 623.029L456.756 594.808V560.25L460.787 534.333L457.496 528.573M425.654 458.883L422.083 458.307M331.198 369.034L393.977 403.015L399.161 408.199L401.464 412.231L408.376 433.541M331.198 369.034L295.489 354.635L268.995 328.142M331.198 369.034L368.635 315.914M410.68 439.3L422.083 458.307M504.56 443.544V441.604L489.009 417.841M489.009 417.841L475.186 397.256L464.243 375.37L451.572 363.851L384.186 313.743L373.819 308.559L368.635 315.914M489.009 417.841L500.331 410.503M268.995 328.142L264.964 318.926M268.995 328.142V322.382L264.964 318.926M264.964 318.926L244.805 275.73L226.951 255.572L218.887 244.628L194.121 228.245M181.45 219.862L194.121 228.245M194.121 228.245L173.963 247.508L165.324 248.66L123.279 242.325L78.3549 229.078H56.4688M534.509 448.516L548.332 459.459L556.971 451.971L564.796 462.338M534.509 448.516H520.686M534.509 448.516L532.206 441.604M532.206 441.604L550.636 426.053M368.635 315.914L346.173 300.496L298.369 212.375L300.097 183.577L306.432 178.394L317.951 151.324" stroke="black" stroke-opacity="0.05"/>
<path d="M335.5 312.5L451 394" stroke="black" stroke-opacity="0.05"/>
<circle cx="351.356" cy="571.193" r="2.95572" stroke="black" stroke-opacity="0.05"/>
<circle cx="455.028" cy="626.485" r="2.95572" stroke="black" stroke-opacity="0.05"/>
<circle cx="313.343" cy="499.775" r="2.95572" stroke="black" stroke-opacity="0.05"/>
<circle cx="53.0133" cy="229.078" r="2.95572" stroke="black" stroke-opacity="0.05"/>
<circle cx="408.952" cy="436.421" r="2.95572" stroke="black" stroke-opacity="0.05"/>
<path d="M352.508 574.073L355.964 587.32L359.995 595.959L365.179 602.871L379.578 612.086L389.945 617.27L402.616 621.301L427.958 624.181L451.572 626.485" stroke="black" stroke-opacity="0.05"/>
<path d="M477.059 445.572C476.9 446.021 476.479 446.384 475.831 446.562C475.185 446.741 474.36 446.717 473.52 446.419C472.679 446.122 472.023 445.621 471.633 445.076C471.242 444.53 471.143 443.982 471.302 443.533C471.461 443.084 471.882 442.721 472.53 442.542C473.176 442.364 474.001 442.388 474.841 442.686C475.682 442.983 476.338 443.484 476.728 444.029C477.119 444.575 477.218 445.123 477.059 445.572Z" stroke="black" stroke-opacity="0.05"/>
<path d="M350.204 568.314L345.597 555.067L334.078 534.333L315.071 502.655" stroke="black" stroke-opacity="0.05"/>
<path d="M324.004 522.6V531H323.128V523.368H319.072L318.976 526.176C318.936 527.336 318.84 528.272 318.688 528.984C318.544 529.688 318.32 530.216 318.016 530.568C317.712 530.912 317.308 531.084 316.804 531.084C316.588 531.084 316.364 531.056 316.132 531L316.204 530.208C316.34 530.24 316.472 530.256 316.6 530.256C316.952 530.256 317.236 530.116 317.452 529.836C317.676 529.556 317.844 529.124 317.956 528.54C318.068 527.948 318.144 527.168 318.184 526.2L318.304 522.6H324.004ZM327.234 524.688H328.086V529.704L332.298 524.688H333.054V531H332.202V525.984L328.002 531H327.234V524.688ZM342.672 530.256V532.584H341.868V531H336.096V524.688H336.948V530.256H340.8V524.688H341.652V530.256H342.672ZM350.419 528.108H345.139C345.187 528.764 345.439 529.296 345.895 529.704C346.351 530.104 346.927 530.304 347.623 530.304C348.015 530.304 348.375 530.236 348.703 530.1C349.031 529.956 349.315 529.748 349.555 529.476L350.035 530.028C349.755 530.364 349.403 530.62 348.979 530.796C348.563 530.972 348.103 531.06 347.599 531.06C346.951 531.06 346.375 530.924 345.871 530.652C345.375 530.372 344.987 529.988 344.707 529.5C344.427 529.012 344.287 528.46 344.287 527.844C344.287 527.228 344.419 526.676 344.683 526.188C344.955 525.7 345.323 525.32 345.787 525.048C346.259 524.776 346.787 524.64 347.371 524.64C347.955 524.64 348.479 524.776 348.943 525.048C349.407 525.32 349.771 525.7 350.035 526.188C350.299 526.668 350.431 527.22 350.431 527.844L350.419 528.108ZM347.371 525.372C346.763 525.372 346.251 525.568 345.835 525.96C345.427 526.344 345.195 526.848 345.139 527.472H349.615C349.559 526.848 349.323 526.344 348.907 525.96C348.499 525.568 347.987 525.372 347.371 525.372ZM352.917 524.688H353.769V529.704L357.981 524.688H358.737V531H357.885V525.984L353.685 531H352.917V524.688ZM355.785 523.776C355.241 523.776 354.809 523.64 354.489 523.368C354.169 523.096 354.005 522.712 353.997 522.216H354.609C354.617 522.528 354.729 522.78 354.945 522.972C355.161 523.156 355.441 523.248 355.785 523.248C356.129 523.248 356.409 523.156 356.625 522.972C356.849 522.78 356.965 522.528 356.973 522.216H357.585C357.577 522.712 357.409 523.096 357.081 523.368C356.761 523.64 356.329 523.776 355.785 523.776ZM375.959 526.368C375.567 526.368 375.211 526.288 374.891 526.128C374.579 525.96 374.331 525.732 374.147 525.444C373.971 525.148 373.883 524.816 373.883 524.448C373.883 524.08 373.971 523.752 374.147 523.464C374.331 523.176 374.579 522.952 374.891 522.792C375.211 522.624 375.567 522.54 375.959 522.54C376.351 522.54 376.703 522.624 377.015 522.792C377.335 522.952 377.583 523.176 377.759 523.464C377.943 523.752 378.035 524.08 378.035 524.448C378.035 524.816 377.943 525.148 377.759 525.444C377.583 525.732 377.335 525.96 377.015 526.128C376.703 526.288 376.351 526.368 375.959 526.368ZM371.819 522.6H372.695V531H371.963L366.563 524.184V531H365.675V522.6H366.407L371.819 529.416V522.6ZM375.959 523.068C375.535 523.068 375.187 523.196 374.915 523.452C374.643 523.708 374.507 524.04 374.507 524.448C374.507 524.856 374.639 525.188 374.903 525.444C375.175 525.7 375.527 525.828 375.959 525.828C376.391 525.828 376.739 525.7 377.003 525.444C377.275 525.188 377.411 524.856 377.411 524.448C377.411 524.04 377.275 523.708 377.003 523.452C376.731 523.196 376.383 523.068 375.959 523.068ZM374.123 527.4H377.795V528H374.123V527.4ZM382.601 522.6V531H381.737V523.368H379.757V522.6H382.601Z" fill="black"/>
<circle cx="314" cy="542" r="2" fill="black"/>
<circle cx="328.5" cy="567.5" r="1.5" fill="black" fill-opacity="0.5"/>
<path d="M427.5 414L432.5 412.5L461 372.5" stroke="black" stroke-opacity="0.05"/>
<defs>
<filter id="filter0_d" x="0.332031" y="0.360352" width="814.251" height="915.11" filterUnits="userSpaceOnUse" color-interpolation-filters="sRGB">
<feFlood flood-opacity="0" result="BackgroundImageFix"/>
<feColorMatrix in="SourceAlpha" type="matrix" values="0 0 0 0 0 0 0 0 0 0 0 0 0 0 0 0 0 0 127 0"/>
<feOffset dx="-2" dy="7"/>
<feGaussianBlur stdDeviation="6"/>
<feColorMatrix type="matrix" values="0 0 0 0 0 0 0 0 0 0 0 0 0 0 0 0 0 0 0.08 0"/>
<feBlend mode="normal" in2="BackgroundImageFix" result="effect1_dropShadow"/>
<feBlend mode="normal" in="SourceGraphic" in2="effect1_dropShadow" result="shape"/>
</filter>
</defs>
</svg>
